<svg id="watch-svg1" class="watch-svg watch-svg1" data-watch="1" version="1.1" xmlns="http://www.w3.org/2000/svg" xmlns:xlink="http://www.w3.org/1999/xlink" xmlns:a="http://ns.adobe.com/AdobeSVGViewerExtensions/3.0/" x="0px" y="0px" width="360.001px" height="564.481px" viewBox="0 0 360.001 564.481" enable-background="new 0 0 360.001 564.481" xml:space="preserve">
    <g id="svg-strap">
        <path fill="transparent" d="M115.5,183c63.5-33.5,119.5,0,119.5,0l-1.5-39.5l24-112.5h-67l-84,5l6.5,100.5L115.5,183z" />
        <path fill="transparent" d="M235,384c0,0-51.5,36.5-121,0v37.5l-23.5,83l26,16.5l58,3.5l66-3V481l-6-65.5L235,384z" />
    </g>
    <g id="svg-case">
        <path fill="transparent" d="M62.667,149.667v90.667c0,0,20.059-45.286,52.833-57.333l-2.5-46.5L62.667,149.667z" />
        <path fill="transparent" d="M254,129.667L233.5,143.5L235,183c0,0,25.666,16.667,32.333,28.667S282.667,175,282.667,175L254,129.667z" />
        <path fill="transparent" d="M233.5,426.999c0,0,5.833,34,33.833,14v-83.333L233.5,380.999V426.999z" />
        <path fill="transparent" d="M74.667,342.999l-20-8l8,43.333L78,468.999l36-47.499V384C96.342,376.088,74.667,342.999,74.667,342.999z" />
    </g>
    <g id="svg-bezel">
        <path opacity="1" fill="transparent" d="M176.5,162.741c-65.998,0-119.5,53.502-119.5,119.5c0,65.998,53.502,119.5,119.5,119.5
		c65.997,0,119.5-53.502,119.5-119.5C296,216.243,242.497,162.741,176.5,162.741z M176.5,371.48
		c-49.286,0-89.241-39.954-89.241-89.24c0-49.287,39.955-89.241,89.241-89.241c49.285,0,89.24,39.954,89.24,89.241
		C265.74,331.526,225.785,371.48,176.5,371.48z" />
    </g>
    <g id="svg-bezel-num">
        <path opacity="1" fill="transparent" d="M176.5,177.574c-57.806,0-104.667,46.861-104.667,104.667
		c0,57.805,46.861,104.667,104.667,104.667c57.806,0,104.667-46.861,104.667-104.667C281.167,224.435,234.306,177.574,176.5,177.574
		z M176.5,377.013c-52.341,0-94.773-42.432-94.773-94.772c0-52.342,42.432-94.773,94.773-94.773
		c52.34,0,94.772,42.431,94.772,94.773C271.272,334.581,228.84,377.013,176.5,377.013z" />
    </g>
    <g id="svg-winder">
        <circle fill="transparent" cx="290.5" cy="216.5" r="15" />
        <circle fill="transparent" cx="307.334" cy="282.24" r="15" />
        <circle fill="transparent" cx="287.5" cy="349.999" r="15" />
    </g>
    <g id="svg-face">
        <path fill="transparent" d="M176.5,193c-49.287,0-89.241,39.954-89.241,89.241c0,49.286,39.954,89.241,89.241,89.241
			c49.286,0,89.24-39.955,89.24-89.241C265.74,232.954,225.786,193,176.5,193z M216.685,349.645
			c-0.438,0.132-4.455,1.286-6.935,0.105c-2.625-1.25-3.25-6.125-9.375-5s-5.25,11.25-5.25,11.25
			c-7.772-0.162-6.625-10.375-6.625-10.375l-6.375,2.125c1.68,9.357-3.423,12.666-3.838,12.919
			c-0.596,0.013-1.188,0.045-1.787,0.045c-8.625-2.911-5.875-11.464-5.875-11.464l-6.5-1.5c-1.827,9.258-9.943,9.596-10.358,9.607
			c-30.703-9.28-53.446-36.859-55.561-70.057l3.544-1.551l0.625-1.5l-1-5.25c-1.113-0.128-2.208-0.877-3.171-1.8
			c0.822-12.955,4.771-25.059,11.125-35.551l11.895,4.976c0,0-2.474-2.25-3.224-2.875s-2.25-2.5,2.625-4.25s5.75-4.625,3.375-11
			c-0.543-1.458-0.763-2.732-0.794-3.842c13.996-12.96,32.715-20.892,53.294-20.892c25.688,0,48.492,12.345,62.807,31.425
			c-2.695,7.402-17.473,15.975-17.473,15.975c5,0.5,10.5,4.333,10.5,4.333L243,247.333l1.963-3.436
			c5.277,9.402,8.672,19.996,9.679,31.282c-5.173,5.312-10.308,2.153-10.308,2.153c0.167,5.167-2,10.167-2,10.167
			c4.91-3.438,12.122,0.712,12.379,0.861C252.699,314.433,237.963,336.931,216.685,349.645z" />
        <path fill="transparent" d="M166.573,266.833c0.073,1.833,0.76,7,0.76,7l11.333,1.333l13.667-8.333
			C181.668,269.667,166.573,266.833,166.573,266.833z" />
        <path fill="transparent" d="M197.375,306.875c4.25,3.375,4.875,9.125,4.875,9.125l10.625-11.375l-8.125-2.25L197.375,306.875z" />
    </g>
    <g id="svg-sub-hands">
        <circle fill="transparent" cx="135.167" cy="278.448" r="9.926" />
        <circle fill="transparent" cx="176.5" cy="321.801" r="9.926" />
        <circle fill="transparent" cx="217.426" cy="278.448" r="9.926" />
    </g>
    <g id="svg-sub-ring">
        <path fill="transparent" d="M167.198,277.156c0-17.69-14.341-32.031-32.031-32.031s-32.031,14.341-32.031,32.031
			c0,17.691,14.341,32.032,32.031,32.032S167.198,294.847,167.198,277.156z M135.167,300.625c-12.962,0-23.469-10.507-23.469-23.469
			c0-12.961,10.507-23.469,23.469-23.469c12.961,0,23.469,10.507,23.469,23.469C158.636,290.118,148.128,300.625,135.167,300.625z" />
        <path fill="transparent" d="M216.688,250.25c-15.292,0-27.688,12.396-27.688,27.687c0,15.292,12.396,27.688,27.688,27.688
			c15.291,0,27.687-12.396,27.687-27.688C244.374,262.646,231.979,250.25,216.688,250.25z M216.688,297.249
			c-10.666,0-19.313-8.646-19.313-19.312c0-10.666,8.646-19.311,19.313-19.311c10.665,0,19.312,8.646,19.312,19.311
			C235.999,288.604,227.353,297.249,216.688,297.249z" />
        <path fill="transparent" d="M175.718,296c-15.292,0-27.688,12.141-27.688,27.116c0,14.977,12.396,27.116,27.688,27.116
			c15.291,0,27.687-12.14,27.687-27.116C203.404,308.141,191.009,296,175.718,296z M175.718,342.029
			c-10.666,0-19.313-8.467-19.313-18.913s8.646-18.913,19.313-18.913c10.665,0,19.312,8.467,19.312,18.913
			S186.383,342.029,175.718,342.029z" />
    </g>
    <g id="svg-up-text">
        <circle opacity="1" fill="transparent" cx="175.717" cy="225.188" r="19.936" />
    </g>
    <g id="svg-hour">
        <polygon opacity="1" fill="transparent" points="155.781,285.25 219.25,245.125 229.537,253.414 205.125,273.25 166.573,299.25 	" />
    </g>
    <g id="svg-min">
        <polygon opacity="1" fill="transparent" points="111,237.75 195.653,286.25 189,297.24 98.25,248.75 	" />
    </g>
    <g id="svg-sechand">
        <polygon opacity="1" fill="transparent" points="219.5,207.5 154.5,303.75 157.75,311.875 167.198,308 226.25,215 	" />
    </g>
    <g id="svg-sechand-tip">
        <circle  fill="red" cx="219.501" cy="214.366" r="8.106"/>
    </g>
    <g id="svg-lumi">
        <circle fill="transparent" cx="141.76" cy="263.924" r="8.304"/>
        <circle fill="transparent" cx="208.75" cy="260.551" r="8.304"/>
    </g>
    <g id="svg-sub-number">

                <path fill="transparent" d="M216.686,256.583c1.738,0,3.419,0.23,5.037,0.622v-3.134c-1.626-0.341-3.31-0.523-5.037-0.523    c-1.574,0-3.112,0.155-4.604,0.439v3.106C213.566,256.768,215.104,256.583,216.686,256.583z"></path>
                <path fill="transparent" d="M196.216,284.104l-2.669,1.643c1.047,3.112,2.701,5.942,4.825,8.352l2.646-1.629    C198.831,290.108,197.163,287.266,196.216,284.104z"></path>
                <path fill="transparent" d="M237.489,282.817c-0.751,3.226-2.216,6.176-4.244,8.658l2.768,1.395c1.957-2.533,3.429-5.459,4.271-8.643    L237.489,282.817z"></path>
                
                    
                        <path fill="transparent" d="M175.717,301.402c1.712,0,3.369,0.22,4.966,0.597v-3.164c-1.604-0.328-3.265-0.5-4.966-0.5      c-1.599,0-3.161,0.157-4.675,0.448v3.141C172.549,301.591,174.109,301.402,175.717,301.402z"></path>
                        <path fill="transparent" d="M155.176,329.652l-2.687,1.653c1.104,3.086,2.802,5.889,4.961,8.268l2.68-1.65      C157.905,335.6,156.19,332.786,155.176,329.652z"></path>
                        <path fill="transparent" d="M196.597,328.44c-0.832,3.2-2.366,6.112-4.448,8.554l2.816,1.42c2.005-2.5,3.53-5.397,4.443-8.557      L196.597,328.44z"></path>
                    
                    <path fill="transparent" d="M135.167,250.75c1.872,0,3.697,0.198,5.458,0.568v-3.816c-1.771-0.324-3.593-0.502-5.458-0.502     c-2.173,0-4.29,0.235-6.332,0.671v3.848C130.864,251.02,132.983,250.75,135.167,250.75z"></path>
                    <path fill="transparent" d="M135.167,303.562c-2.183,0-4.303-0.271-6.332-0.77v3.849c2.042,0.438,4.159,0.672,6.332,0.672     c1.865,0,3.687-0.178,5.458-0.502v-3.817C138.863,303.364,137.038,303.562,135.167,303.562z"></path>
                    <path fill="transparent" d="M108.761,277.156c0-2.451,0.341-4.82,0.965-7.072h-3.874c-0.546,2.269-0.842,4.635-0.842,7.072     c0,1.605,0.128,3.181,0.37,4.718h3.81C108.913,280.342,108.761,278.767,108.761,277.156z"></path>
                    <path fill="transparent" d="M164.48,270.084h-3.874c0.625,2.251,0.965,4.621,0.965,7.072c0,1.611-0.152,3.187-0.429,4.718h3.81     c0.241-1.538,0.37-3.113,0.37-4.718C165.323,274.719,165.026,272.353,164.48,270.084z"></path>
    </g>
    <g id="svg-sub-mark">
            <path fill="transparent" d="M197.315,323c0,1.883-0.266,3.699-0.719,5.44l2.812,1.417c0.63-2.178,0.974-4.477,0.974-6.857    c0-11.92-8.457-21.866-19.699-24.165v3.164C190.212,304.245,197.315,312.783,197.315,323z"/>
            <path fill="transparent" d="M175.717,344.595c-6.132,0-11.655-2.567-15.586-6.672l-2.68,1.65c4.512,4.97,11.024,8.091,18.266,8.091    c7.787,0,14.728-3.613,19.248-9.25l-2.816-1.42C188.187,341.64,182.3,344.595,175.717,344.595z"/>
            <path fill="transparent" d="M154.121,323c0-10.321,7.243-18.938,16.92-21.076v-3.141c-11.385,2.186-19.99,12.195-19.99,24.217    c0,2.915,0.509,5.71,1.438,8.306l2.687-1.653C154.498,327.556,154.121,325.322,154.121,323z"/>
        <path opacity="0" fill="transparent" d="M216.686,299.337c-6.199,0-11.764-2.654-15.668-6.868l-2.646,1.629   c4.475,5.073,11.019,8.277,18.313,8.277c7.867,0,14.861-3.727,19.327-9.506l-2.768-1.395   C229.324,296.271,223.364,299.337,216.686,299.337z"/>
        <path opacity="0" fill="transparent" d="M238.064,277.961c0,1.673-0.212,3.293-0.575,4.856l2.795,1.41c0.53-2,0.815-4.099,0.815-6.266   c0-11.756-8.312-21.568-19.377-23.89v3.134C231.094,259.473,238.064,267.893,238.064,277.961z"/>
        <path opacity="0" fill="transparent" d="M195.31,277.961c0-10.225,7.182-18.76,16.772-20.867v-3.106   c-11.281,2.154-19.811,12.065-19.811,23.974c0,2.723,0.453,5.34,1.275,7.785l2.669-1.643   C195.632,282.157,195.31,280.098,195.31,277.961z"/>
        <path opacity="0" fill="transparent" d="M128.834,251.52v-3.848c-11.323,2.42-20.285,11.195-22.982,22.413h3.874   C112.262,260.942,119.587,253.796,128.834,251.52z"/>
        <path opacity="0" fill="transparent" d="M160.607,270.084h3.874c-2.766-11.504-12.123-20.436-23.856-22.582v3.816   C150.282,253.348,157.991,260.656,160.607,270.084z"/>
        <path opacity="0" fill="transparent" d="M140.625,302.993v3.817c12.523-2.291,22.344-12.309,24.329-24.937h-3.81   C159.239,292.426,151.072,300.798,140.625,302.993z"/>
        <path opacity="0" fill="transparent" d="M109.189,281.874h-3.81c1.938,12.333,11.35,22.18,23.455,24.767v-3.849   C118.808,300.323,111.041,292.13,109.189,281.874z"/>
    </g>
    <g id="svg-sec-mark">
        <circle fill="transparent" cx="241.041" cy="331.167" r="3.333" />
        <circle fill="transparent" cx="227.167" cy="345.583" r="3.333" />
        <circle fill="transparent" cx="205.417" cy="356.75" r="3.333" />
        <circle fill="transparent" cx="146.542" cy="356.75" r="3.333" />
        <circle fill="transparent" cx="124.979" cy="346.063" r="3.333" />
        <circle fill="transparent" cx="117.333" cy="339.063" r="3.333" />
        <circle fill="transparent" cx="110.396" cy="331.666" r="3.333" />
        <circle fill="transparent" cx="99.802" cy="313.791" r="3.333" />
        <circle fill="transparent" cx="95.927" cy="303.541" r="3.333" />
        <circle fill="transparent" cx="93.136" cy="292.667" r="3.333" />
        <circle fill="transparent" cx="94.261" cy="270.828" r="3.333" />
        <circle fill="transparent" cx="96.469" cy="258.953" r="3.333" />
        <circle fill="transparent" cx="110.219" cy="233.328" r="3.333" />
        <circle fill="transparent" cx="120.094" cy="223.703" r="3.333" />
        <circle fill="transparent" cx="145.093" cy="207.786" r="3.333" />
        <circle fill="transparent" cx="155.781" cy="204.453" r="3.333" />
        <circle fill="transparent" cx="190.376" cy="203.412" r="3.333" />
        <circle fill="transparent" cx="204.001" cy="207.5" r="3.333" />
        <circle fill="transparent" cx="230.167" cy="222.625" r="3.333" />
        <circle fill="transparent" cx="241.041" cy="233.625" r="3.333" />
        <circle fill="transparent" cx="252.166" cy="254.125" r="3.333" />
        <circle fill="transparent" cx="257.541" cy="272.188" r="3.333" />
        <circle fill="transparent" cx="257.541" cy="293.907" r="3.333" />
        <circle fill="transparent" cx="252.291" cy="311.875" r="3.333" />
        <circle fill="transparent" cx="182.667" cy="363" r="1.984" />
        <circle fill="transparent" cx="169.046" cy="363" r="1.984" />
        <circle fill="transparent" cx="197.417" cy="360.083" r="1.984" />
        <circle fill="transparent" cx="234.584" cy="339.083" r="2.386" />
        <circle fill="transparent" cx="153.083" cy="360.083" r="1.984" />
    </g>
    <g id="svg-swiss">
        <circle fill="transparent" cx="188.91" cy="358.031" r="2.484" />
        <circle fill="transparent" cx="164.577" cy="358.031" r="2.484" />
    </g>
    <g id="svg-hour-mark">
        <circle fill="transparent" cx="247.334" cy="242.583" r="5.458" />
        <circle fill="transparent" cx="179.084" cy="201.5" r="5.458" />
        <circle fill="transparent" cx="170.259" cy="201.5" r="5.458" />
        <circle fill="transparent" cx="134.384" cy="212.786" r="5.458" />
        <circle fill="transparent" cx="103.708" cy="242.661" r="5.458" />
        <circle fill="transparent" cx="93.136" cy="282.241" r="5.458" />
        <circle fill="transparent" cx="104.718" cy="323.115" r="5.458" />
        <circle fill="transparent" cx="135.167" cy="352.572" r="5.458" />
        <circle fill="transparent" cx="176.499" cy="362.999" r="5.458" />
        <circle fill="transparent" cx="216.999" cy="351.52" r="5.458" />
        <circle fill="transparent" cx="258.207" cy="282.241" r="5.458" />
        <circle fill="transparent" cx="247.321" cy="322.459" r="5.458" />
    </g>
    <g id="svg-hour-mark-lumi">
        <circle fill="transparent" cx="247.334" cy="242.583" r="2.875" />
        <circle fill="transparent" cx="179.375" cy="201.458" r="2.875" />
        <circle fill="transparent" cx="170.259" cy="201.5" r="2.875" />
        <circle fill="transparent" cx="258.207" cy="282.24" r="2.875" />
        <circle fill="transparent" cx="134.384" cy="212.786" r="2.875" />
        <circle fill="transparent" cx="103.708" cy="242.661" r="2.875" />
        <circle fill="transparent" cx="93.136" cy="282.241" r="2.875" />
        <circle fill="transparent" cx="104.718" cy="323.116" r="2.875" />
        <circle fill="transparent" cx="135.167" cy="352.573" r="2.875" />
        <circle fill="transparent" cx="176.499" cy="363" r="2.875" />
        <circle fill="transparent" cx="217.209" cy="351.583" r="2.875" />
        <circle fill="transparent" cx="247.321" cy="322.46" r="2.875" />
    </g>
    <!-- <g id="svg-arabic-number">
        <g>
            <polygon fill="red" points="165.232,186.119 165.232,186.106 165.232,186.106   "/>
            <path fill="red" d="M113.459,201.717c-0.079-0.096-0.223-0.168-0.338-0.227c-0.032-0.015-0.063-0.03-0.089-0.045    c-0.267,0.017-0.48,0.141-0.578,0.336c-0.095,0.19-0.063,0.414,0.085,0.614c0.802,1.072,1.68,2.106,2.51,3.064    c0.237,0.273,0.54,0.3,0.802,0.084c0.233-0.192,0.33-0.399,0.035-0.783C115.154,203.803,114.36,202.808,113.459,201.717z"/>
            <path fill="red" d="M120.469,196.769c-0.071-0.103-0.208-0.187-0.318-0.254c-0.03-0.019-0.058-0.036-0.085-0.052    c-0.267-0.005-0.49,0.098-0.604,0.286c-0.11,0.182-0.098,0.408,0.034,0.618c0.708,1.136,1.496,2.241,2.241,3.266    c0.214,0.293,0.511,0.346,0.791,0.152c0.25-0.171,0.364-0.369,0.103-0.777C121.983,198.99,121.275,197.932,120.469,196.769z"/>
            <path fill="red" d="M107.176,206.979c-0.087-0.09-0.236-0.151-0.355-0.197c-0.033-0.015-0.063-0.028-0.091-0.04    c-0.265,0.041-0.469,0.178-0.55,0.382c-0.078,0.197-0.029,0.419,0.135,0.604c0.886,1.005,1.843,1.966,2.75,2.853    c0.256,0.254,0.561,0.257,0.805,0.02c0.217-0.21,0.297-0.424-0.026-0.784C109.035,208.92,108.162,207.993,107.176,206.979z"/>
            <path fill="red" d="M101.233,212.842c-0.093-0.082-0.247-0.13-0.369-0.167c-0.035-0.011-0.065-0.022-0.095-0.032    c-0.259,0.063-0.451,0.215-0.517,0.427c-0.061,0.203,0.005,0.418,0.186,0.589c0.965,0.928,1.999,1.808,2.974,2.617    c0.277,0.231,0.58,0.209,0.803-0.046c0.201-0.228,0.263-0.446-0.09-0.779C103.246,214.625,102.299,213.772,101.233,212.842z"/>
            <path fill="red" d="M91.034,224.419c-0.104-0.068-0.265-0.093-0.391-0.11c-0.037-0.006-0.066-0.012-0.098-0.018    c-0.247,0.099-0.413,0.282-0.446,0.5c-0.03,0.208,0.068,0.412,0.272,0.555c1.093,0.772,2.247,1.485,3.334,2.139    c0.309,0.187,0.604,0.12,0.787-0.167c0.165-0.256,0.192-0.482-0.207-0.757C93.292,225.877,92.228,225.178,91.034,224.419z"/>
            <path fill="red" d="M87.205,230.463c-0.108-0.06-0.272-0.073-0.398-0.083c-0.036-0.003-0.066-0.007-0.099-0.011    c-0.239,0.117-0.393,0.312-0.41,0.531c-0.016,0.209,0.097,0.406,0.31,0.533c1.146,0.695,2.347,1.325,3.477,1.902    c0.32,0.165,0.61,0.077,0.773-0.221c0.147-0.268,0.158-0.495-0.26-0.741C89.559,231.76,88.448,231.138,87.205,230.463z"/>
            <path fill="red" d="M83.739,236.901c-0.114-0.052-0.276-0.054-0.403-0.054c-0.037-0.001-0.066-0.001-0.101-0.002    c-0.228,0.132-0.368,0.338-0.37,0.557c-0.002,0.212,0.124,0.398,0.347,0.511c1.193,0.611,2.436,1.153,3.602,1.647    c0.333,0.143,0.617,0.033,0.757-0.274c0.129-0.278,0.123-0.505-0.31-0.721C86.18,238.027,85.026,237.484,83.739,236.901z"/>
            <path fill="red" d="M80.853,243.299c-0.117-0.044-0.281-0.034-0.406-0.025c-0.037,0.001-0.067,0.002-0.103,0.004    c-0.216,0.148-0.342,0.363-0.329,0.581c0.012,0.211,0.15,0.39,0.38,0.487c1.231,0.527,2.509,0.983,3.707,1.396    c0.342,0.119,0.617-0.009,0.736-0.326c0.11-0.287,0.087-0.513-0.359-0.697C83.367,244.254,82.177,243.793,80.853,243.299z"/>
            <path fill="red" d="M76.535,256.201c-0.122-0.028-0.282,0.003-0.406,0.028c-0.037,0.007-0.065,0.011-0.101,0.018    c-0.196,0.174-0.292,0.404-0.249,0.619c0.04,0.208,0.2,0.366,0.441,0.432c1.29,0.36,2.619,0.642,3.859,0.893    c0.354,0.072,0.61-0.092,0.686-0.421c0.071-0.298,0.019-0.52-0.449-0.644C79.153,256.815,77.913,256.515,76.535,256.201z"/>
            <path fill="red" d="M75.118,262.382c-0.124-0.021-0.283,0.02-0.403,0.053c-0.037,0.01-0.065,0.017-0.1,0.024    c-0.184,0.187-0.266,0.423-0.209,0.634c0.054,0.206,0.222,0.354,0.467,0.404c1.31,0.279,2.653,0.479,3.908,0.652    c0.358,0.049,0.603-0.13,0.657-0.463c0.053-0.302-0.014-0.52-0.489-0.615C77.77,262.833,76.513,262.61,75.118,262.382z"/>
            <path fill="red" d="M74.083,268.665c-0.124-0.012-0.279,0.037-0.398,0.079c-0.035,0.011-0.063,0.019-0.097,0.028    c-0.173,0.198-0.239,0.438-0.171,0.646c0.066,0.201,0.244,0.339,0.492,0.374c1.323,0.197,2.677,0.312,3.941,0.407    c0.359,0.027,0.592-0.167,0.626-0.502c0.033-0.306-0.047-0.518-0.527-0.583C76.757,268.949,75.489,268.805,74.083,268.665z"/>
            <path fill="red" d="M73.454,274.83c-0.126-0.005-0.278,0.054-0.394,0.102c-0.035,0.014-0.063,0.024-0.094,0.035    c-0.161,0.208-0.213,0.452-0.133,0.656c0.08,0.196,0.267,0.324,0.516,0.343c1.333,0.116,2.691,0.147,3.958,0.167    c0.359,0.006,0.58-0.202,0.596-0.539c0.014-0.307-0.079-0.514-0.562-0.55C76.139,274.952,74.866,274.883,73.454,274.83z"/>
            <path fill="red" d="M73.608,286.879c-0.126,0.012-0.27,0.088-0.38,0.148c-0.033,0.016-0.059,0.028-0.089,0.044    c-0.135,0.229-0.159,0.477-0.054,0.669c0.099,0.186,0.3,0.289,0.551,0.281c1.336-0.044,2.689-0.172,3.951-0.301    c0.356-0.036,0.551-0.269,0.529-0.605c-0.023-0.31-0.14-0.506-0.623-0.481C76.289,286.687,75.016,286.767,73.608,286.879z"/>
            <path fill="red" d="M74.017,292.424c-0.125,0.017-0.263,0.101-0.371,0.164c-0.032,0.024-0.059,0.037-0.086,0.057    c-0.122,0.229-0.133,0.48-0.018,0.666c0.109,0.181,0.317,0.271,0.566,0.248c1.333-0.111,2.677-0.313,3.93-0.513    c0.354-0.057,0.535-0.297,0.493-0.634c-0.038-0.305-0.167-0.494-0.648-0.445C76.683,292.083,75.417,292.231,74.017,292.424z"/>
            <path fill="red" d="M74.873,298.03c-0.123,0.023-0.257,0.116-0.36,0.188c-0.031,0.023-0.057,0.039-0.083,0.056    c-0.11,0.236-0.106,0.489,0.019,0.67c0.117,0.172,0.332,0.252,0.578,0.217c1.324-0.188,2.657-0.461,3.895-0.73    c0.35-0.076,0.52-0.328,0.459-0.661c-0.056-0.302-0.194-0.485-0.672-0.409C77.517,297.545,76.261,297.766,74.873,298.03z"/>
            <path fill="red" d="M76.109,303.587c-0.121,0.032-0.25,0.128-0.35,0.213c-0.03,0.024-0.054,0.04-0.079,0.056    c-0.098,0.249-0.08,0.498,0.056,0.67c0.128,0.165,0.346,0.233,0.59,0.185c1.313-0.261,2.626-0.61,3.847-0.946    c0.345-0.097,0.501-0.353,0.422-0.686c-0.073-0.297-0.221-0.469-0.694-0.369C78.722,302.954,77.48,303.246,76.109,303.587z"/>
            <path fill="red" d="M79.265,313.764c-0.117,0.045-0.237,0.156-0.326,0.248c-0.029,0.028-0.052,0.045-0.072,0.065    c-0.073,0.252-0.03,0.501,0.124,0.657c0.144,0.151,0.368,0.196,0.605,0.12c1.279-0.393,2.55-0.874,3.729-1.339    c0.334-0.129,0.462-0.401,0.348-0.722c-0.103-0.289-0.268-0.446-0.727-0.298C81.798,312.866,80.593,313.282,79.265,313.764z"/>
            <path fill="red" d="M80.942,318.475c-0.114,0.049-0.229,0.165-0.313,0.262c-0.026,0.027-0.049,0.048-0.068,0.068    c-0.061,0.261-0.005,0.505,0.156,0.653c0.153,0.144,0.378,0.176,0.611,0.088c1.258-0.453,2.504-0.999,3.659-1.52    c0.327-0.145,0.441-0.425,0.313-0.738c-0.119-0.284-0.291-0.433-0.74-0.261C83.43,317.449,82.246,317.926,80.942,318.475z"/>
            <path fill="red" d="M82.851,323.095c-0.11,0.056-0.22,0.176-0.3,0.276c-0.026,0.032-0.047,0.052-0.064,0.076    c-0.049,0.257,0.019,0.501,0.187,0.642c0.16,0.137,0.385,0.161,0.615,0.06c1.233-0.517,2.451-1.126,3.579-1.695    c0.319-0.165,0.419-0.454,0.276-0.758c-0.133-0.277-0.31-0.418-0.753-0.226C85.284,321.951,84.126,322.484,82.851,323.095z"/>
            <path fill="red" d="M84.986,327.617c-0.107,0.061-0.213,0.188-0.286,0.289c-0.025,0.032-0.046,0.056-0.061,0.08    c-0.037,0.261,0.043,0.501,0.219,0.63c0.167,0.132,0.392,0.14,0.616,0.032c1.208-0.578,2.394-1.244,3.492-1.873    c0.31-0.181,0.396-0.469,0.239-0.766c-0.147-0.273-0.331-0.405-0.764-0.192C87.359,326.354,86.229,326.943,84.986,327.617z"/>
            <path fill="red" d="M89.568,335.773c-0.099,0.068-0.192,0.204-0.257,0.316c-0.021,0.032-0.041,0.057-0.053,0.081    c-0.012,0.265,0.089,0.492,0.275,0.608c0.179,0.117,0.405,0.104,0.617-0.027c1.148-0.687,2.269-1.456,3.305-2.182    c0.292-0.212,0.352-0.51,0.167-0.79c-0.172-0.257-0.367-0.373-0.778-0.116C91.816,334.294,90.745,334.987,89.568,335.773z"/>
            <path fill="red" d="M91.922,339.366c-0.096,0.075-0.183,0.216-0.243,0.329c-0.02,0.031-0.038,0.056-0.049,0.083    c-0.001,0.265,0.11,0.494,0.299,0.598c0.184,0.109,0.41,0.089,0.615-0.056c1.119-0.734,2.206-1.553,3.208-2.317    c0.284-0.226,0.331-0.521,0.132-0.798c-0.181-0.249-0.379-0.357-0.78-0.085C94.104,337.798,93.064,338.532,91.922,339.366z"/>
            <path fill="red" d="M94.426,342.858c-0.094,0.076-0.176,0.221-0.23,0.341c-0.019,0.031-0.036,0.056-0.045,0.085    c0.009,0.265,0.131,0.484,0.324,0.585c0.189,0.1,0.413,0.068,0.611-0.08c1.088-0.782,2.14-1.648,3.109-2.458    c0.273-0.233,0.308-0.533,0.097-0.798c-0.192-0.24-0.394-0.342-0.783-0.053C96.541,341.198,95.531,341.98,94.426,342.858z"/>
            <path fill="red" d="M97.076,346.242c-0.091,0.081-0.165,0.229-0.213,0.35c-0.019,0.031-0.035,0.06-0.042,0.084    c0.02,0.269,0.15,0.48,0.347,0.573c0.194,0.093,0.417,0.052,0.607-0.107c1.055-0.827,2.068-1.736,3.001-2.587    c0.263-0.245,0.286-0.545,0.063-0.802c-0.202-0.233-0.405-0.321-0.783-0.017C99.117,344.494,98.142,345.316,97.076,346.242z"/>
            <path fill="red" d="M99.868,349.511c-0.089,0.084-0.157,0.232-0.2,0.356c-0.018,0.036-0.032,0.064-0.039,0.088    c0.032,0.265,0.171,0.474,0.372,0.554c0.197,0.089,0.417,0.037,0.602-0.128c1.017-0.874,1.993-1.825,2.889-2.715    c0.251-0.252,0.263-0.554,0.028-0.802c-0.211-0.225-0.419-0.306-0.783,0.012C101.833,347.679,100.894,348.541,99.868,349.511z"/>
            <path fill="red" d="M102.793,352.654c-0.084,0.092-0.146,0.244-0.185,0.368c-0.015,0.037-0.027,0.064-0.034,0.089    c0.043,0.261,0.192,0.469,0.395,0.537c0.199,0.081,0.419,0.021,0.595-0.156c0.979-0.914,1.915-1.9,2.773-2.831    c0.242-0.265,0.238-0.565-0.007-0.806c-0.219-0.213-0.431-0.281-0.78,0.048C104.679,350.742,103.778,351.644,102.793,352.654z"/>
            <path fill="red" d="M106.102,355.91c-0.081,0.093-0.136,0.248-0.167,0.377c-0.014,0.036-0.026,0.063-0.032,0.088    c0.057,0.261,0.215,0.461,0.419,0.521c0.204,0.068,0.42,0,0.588-0.181c0.937-0.963,1.825-1.992,2.639-2.959    c0.229-0.277,0.214-0.577-0.043-0.807c-0.228-0.2-0.443-0.26-0.778,0.085C107.896,353.917,107.038,354.855,106.102,355.91z"/>
            <path fill="red" d="M109.255,358.753c-0.075,0.097-0.124,0.252-0.15,0.385c-0.012,0.032-0.023,0.063-0.028,0.088    c0.068,0.257,0.235,0.453,0.439,0.505c0.208,0.058,0.421-0.023,0.582-0.207c0.897-0.999,1.739-2.065,2.513-3.063    c0.217-0.289,0.189-0.586-0.077-0.803c-0.237-0.196-0.453-0.245-0.774,0.116C110.966,356.684,110.148,357.658,109.255,358.753z"/>
            <path fill="red" d="M112.526,361.46c-0.071,0.1-0.113,0.261-0.134,0.393c-0.011,0.036-0.019,0.064-0.025,0.088    c0.08,0.257,0.254,0.441,0.461,0.485c0.209,0.048,0.418-0.04,0.573-0.229c0.853-1.038,1.649-2.137,2.381-3.168    c0.205-0.297,0.165-0.597-0.11-0.802c-0.246-0.18-0.464-0.225-0.769,0.148C114.148,359.322,113.372,360.329,112.526,361.46z"/>
            <path fill="red" d="M131.047,373.268c-0.051,0.116-0.055,0.281-0.046,0.414c-0.004,0.039-0.004,0.067-0.004,0.092    c0.13,0.232,0.341,0.377,0.553,0.377c0.217,0,0.401-0.132,0.51-0.354c0.605-1.194,1.145-2.441,1.632-3.608    c0.136-0.333,0.032-0.617-0.279-0.753c-0.281-0.129-0.503-0.125-0.72,0.313C132.164,370.831,131.626,371.984,131.047,373.268z"/>
            <path fill="red" d="M162.533,383.269c-0.01,0.128,0.036,0.285,0.088,0.405c0.008,0.04,0.016,0.068,0.024,0.092    c0.197,0.177,0.445,0.245,0.646,0.177c0.202-0.064,0.336-0.249,0.368-0.493c0.195-1.327,0.309-2.684,0.405-3.942    c0.022-0.356-0.167-0.593-0.505-0.625c-0.309-0.032-0.518,0.044-0.582,0.525C162.818,380.602,162.674,381.865,162.533,383.269z"/>
            <path fill="red" d="M189.418,383.746c0.023,0.124,0.109,0.269,0.193,0.372c0.018,0.033,0.031,0.057,0.045,0.081    c0.238,0.115,0.494,0.12,0.67,0c0.178-0.116,0.26-0.329,0.227-0.574c-0.16-1.331-0.406-2.666-0.643-3.909    c-0.074-0.353-0.318-0.529-0.656-0.47c-0.305,0.049-0.482,0.178-0.424,0.658C188.996,381.099,189.188,382.357,189.418,383.746z"/>
            <path fill="red" d="M212.08,378.184c0.051,0.113,0.164,0.233,0.268,0.313c0.029,0.032,0.047,0.052,0.064,0.071    c0.258,0.062,0.508,0.004,0.652-0.151c0.15-0.152,0.178-0.382,0.094-0.609c-0.459-1.26-1.002-2.506-1.514-3.661    c-0.15-0.325-0.432-0.445-0.746-0.313c-0.285,0.12-0.432,0.28-0.262,0.738C211.066,375.702,211.539,376.881,212.08,378.184z"/>
            <path fill="red" d="M258.471,343.536c0.105,0.068,0.266,0.108,0.396,0.12c0.041,0.008,0.066,0.017,0.09,0.024    c0.252-0.089,0.432-0.272,0.465-0.481c0.043-0.209-0.055-0.417-0.248-0.562c-1.07-0.81-2.201-1.563-3.26-2.258    c-0.301-0.192-0.602-0.141-0.797,0.145c-0.17,0.249-0.205,0.47,0.184,0.763C256.275,342,257.311,342.738,258.471,343.536z"/>
            <path fill="red" d="M270.379,323.07c0.117,0.045,0.283,0.045,0.412,0.024c0.043,0,0.066,0,0.094,0.004    c0.227-0.145,0.357-0.361,0.344-0.573c-0.01-0.213-0.15-0.393-0.371-0.489c-1.229-0.546-2.504-1.019-3.691-1.451    c-0.34-0.116-0.617,0.004-0.742,0.32c-0.109,0.289-0.094,0.509,0.354,0.705C267.889,322.08,269.066,322.562,270.379,323.07z"/>
            <path fill="red" d="M155.188,182.437c-0.052,0-0.104,0.007-0.162,0.02c-0.151,0.033-0.289,0.136-0.381,0.28    c-0.092,0.147-0.124,0.318-0.086,0.479c0.256,1.146,0.557,2.361,0.914,3.717c0.076,0.294,0.287,0.426,0.573,0.39    c0.108-0.016,0.429-0.062,0.497-0.623c-0.088-0.377-0.172-0.755-0.256-1.133c-0.198-0.891-0.405-1.813-0.64-2.709    C155.575,182.575,155.424,182.437,155.188,182.437z"/>
            <path fill="red" d="M165.819,185.321c-0.05-0.382-0.098-0.764-0.146-1.147c-0.112-0.908-0.229-1.847-0.377-2.763    c-0.048-0.314-0.205-0.466-0.481-0.466c-0.032,0-0.064,0.002-0.096,0.007c-0.153,0.019-0.301,0.107-0.407,0.243    c-0.106,0.138-0.155,0.305-0.134,0.468c0.148,1.165,0.329,2.404,0.553,3.788c0.06,0.367,0.305,0.444,0.501,0.444v0.211l0,0    l0.032-0.212C165.372,185.89,165.697,185.874,165.819,185.321z"/>
            <path fill="red" d="M145.66,184.876c-0.066,0-0.138,0.013-0.212,0.037c-0.147,0.047-0.275,0.163-0.354,0.315    c-0.078,0.157-0.092,0.328-0.04,0.484c0.369,1.118,0.786,2.298,1.271,3.61c0.106,0.29,0.325,0.406,0.61,0.333    c0.106-0.026,0.421-0.104,0.435-0.667c-0.126-0.374-0.249-0.749-0.371-1.124c-0.285-0.861-0.577-1.751-0.894-2.614    C146.013,184.999,145.869,184.876,145.66,184.876z"/>
            <path fill="red" d="M136.362,188.247c-0.08,0-0.167,0.02-0.256,0.06c-0.141,0.061-0.257,0.188-0.319,0.35    c-0.062,0.164-0.062,0.335,0.006,0.485c0.473,1.067,1.002,2.202,1.616,3.47c0.136,0.276,0.361,0.367,0.642,0.271    c0.103-0.036,0.409-0.143,0.365-0.707c-0.158-0.357-0.316-0.715-0.475-1.073c-0.367-0.832-0.748-1.693-1.146-2.524    C136.687,188.357,136.542,188.247,136.362,188.247z"/>
            <path fill-rule="evenodd" clip-rule="evenodd" fill="red" d="M201.59,376.168c0.764-0.017,1.479,0.729,1.469,1.534    c-0.008,0.779-0.732,1.528-1.488,1.528c-0.74,0.008-1.445-0.689-1.475-1.451C200.064,376.966,200.793,376.183,201.59,376.168z"/>
            <path fill-rule="evenodd" clip-rule="evenodd" fill="red" d="M176.718,379.038c0.736-0.016,1.438,0.669,1.474,1.436    c0.034,0.834-0.662,1.588-1.478,1.592c-0.742,0.004-1.414-0.646-1.426-1.368C175.278,379.84,175.948,379.059,176.718,379.038z"/>
            <path fill-rule="evenodd" clip-rule="evenodd" fill="red" d="M221.035,371.889c-0.732-0.004-1.393-0.702-1.408-1.504    c-0.021-0.813,0.648-1.499,1.479-1.52c0.73-0.012,1.422,0.718,1.416,1.492C222.514,371.147,221.797,371.889,221.035,371.889z"/>
            <path fill-rule="evenodd" clip-rule="evenodd" fill="red" d="M235.955,362.342c-0.766-0.016-1.406-0.697-1.402-1.491    c0.006-0.822,0.691-1.523,1.477-1.509c0.758,0.013,1.451,0.783,1.416,1.577C237.408,361.688,236.709,362.357,235.955,362.342z"/>
            <path fill-rule="evenodd" clip-rule="evenodd" fill="red" d="M151.129,376.092c-0.016,0.813-0.709,1.495-1.503,1.479    c-0.76-0.012-1.419-0.729-1.387-1.499c0.032-0.782,0.772-1.451,1.572-1.424C150.581,374.68,151.149,375.293,151.129,376.092z"/>
            <path fill-rule="evenodd" clip-rule="evenodd" fill="red" d="M176.108,184.685c0.01,0.773-0.537,1.333-1.313,1.349    c-0.87,0.017-1.548-0.589-1.572-1.409c-0.024-0.756,0.598-1.392,1.379-1.412C175.433,183.191,176.098,183.843,176.108,184.685z"/>
            <path fill-rule="evenodd" clip-rule="evenodd" fill="red" d="M130.307,196.041c0.011,0.772-0.537,1.334-1.314,1.35    c-0.868,0.016-1.544-0.589-1.57-1.41c-0.025-0.756,0.598-1.391,1.38-1.411C129.633,194.547,130.297,195.199,130.307,196.041z"/>
            <path fill-rule="evenodd" clip-rule="evenodd" fill="red" d="M249.031,350.666c0.006,0.861-0.57,1.495-1.357,1.499    c-0.719,0-1.414-0.678-1.428-1.399c-0.012-0.766,0.725-1.544,1.471-1.544C248.461,349.218,249.027,349.839,249.031,350.666z"/>
            <path fill-rule="evenodd" clip-rule="evenodd" fill="red" d="M120.041,361.933c-0.012,0.851-0.604,1.428-1.436,1.407    c-0.787-0.02-1.299-0.557-1.303-1.358c-0.003-0.87,0.632-1.528,1.455-1.505C119.54,360.497,120.054,361.078,120.041,361.933z"/>
            <path fill-rule="evenodd" clip-rule="evenodd" fill="red" d="M263.949,330.449c-0.016,0.744-0.619,1.387-1.303,1.387    c-0.68,0-1.375-0.754-1.344-1.459c0.031-0.711,0.764-1.424,1.43-1.396C263.402,329.013,263.965,329.687,263.949,330.449z"/>
            <path fill-rule="evenodd" clip-rule="evenodd" fill="red" d="M81.347,250.603c0.702-0.003,1.334,0.582,1.361,1.262    c0.028,0.734-0.706,1.458-1.465,1.448c-0.703-0.011-1.323-0.622-1.317-1.298C79.933,251.3,80.633,250.607,81.347,250.603z"/>
            <path fill-rule="evenodd" clip-rule="evenodd" fill="red" d="M82.639,308.358c0.001,0.737-0.587,1.32-1.358,1.339    c-0.772,0.021-1.375-0.548-1.375-1.298c0-0.738,0.661-1.399,1.405-1.408C82.021,306.983,82.637,307.617,82.639,308.358z"/>
            <path fill-rule="evenodd" clip-rule="evenodd" fill="red" d="M99.401,221.283c-0.002,0.759-0.7,1.453-1.451,1.444    c-0.738-0.008-1.353-0.629-1.333-1.344c0.024-0.75,0.658-1.329,1.457-1.329C98.846,220.054,99.404,220.571,99.401,221.283z"/>
            <path fill-rule="evenodd" clip-rule="evenodd" fill="red" d="M90.879,332.324c-0.752-0.02-1.342-0.629-1.313-1.354    c0.028-0.737,0.708-1.343,1.469-1.308c0.74,0.032,1.374,0.678,1.341,1.355C92.34,331.723,91.628,332.341,90.879,332.324z"/>
            <path fill-rule="evenodd" clip-rule="evenodd" fill="red" d="M76.84,283.169c-0.779-0.007-1.281-0.508-1.271-1.275    c0.007-0.752,0.596-1.345,1.336-1.339c0.686,0.003,1.366,0.629,1.368,1.252C78.275,282.529,77.595,283.177,76.84,283.169z"/>
            <path fill-rule="evenodd" clip-rule="evenodd" fill="red" d="M255.707,224.827c-0.729,0-1.35-0.613-1.365-1.346    c-0.021-0.745,0.537-1.351,1.236-1.336c0.732,0.014,1.4,0.706,1.385,1.436C256.943,224.269,256.383,224.827,255.707,224.827z"/>
            <path fill-rule="evenodd" clip-rule="evenodd" fill="red" d="M270.408,252.115c-0.727-0.002-1.391-0.705-1.369-1.444    c0.025-0.701,0.586-1.273,1.246-1.259c0.746,0.017,1.371,0.68,1.357,1.443C271.629,251.561,271.086,252.116,270.408,252.115z"/>
            <path fill-rule="evenodd" clip-rule="evenodd" fill="red" d="M271.199,312.866c-0.662-0.009-1.281-0.646-1.277-1.315    c0.002-0.674,0.65-1.315,1.301-1.291c0.635,0.027,1.314,0.709,1.318,1.331C272.541,312.208,271.842,312.878,271.199,312.866z"/>
            <path fill-rule="evenodd" clip-rule="evenodd" fill="red" d="M276.717,281.374c0.021,0.636-0.523,1.222-1.16,1.242    c-0.68,0.026-1.307-0.563-1.346-1.261c-0.033-0.673,0.467-1.264,1.092-1.292C275.986,280.031,276.691,280.688,276.717,281.374z"/>
        </g>
        <g>
            <path fill="red" d="M228.816,188.457c0.08-0.093,0.143-0.175,0.195-0.248c0.049-0.073,0.104-0.166,0.166-0.275    c0.109-0.191,0.182-0.4,0.221-0.625c0.021-0.145,0.033-0.35,0.041-0.621c0.461-0.265,0.861-0.571,1.203-0.916    c0.311-0.315,0.578-0.673,0.805-1.068l0.219-0.409l0.188,0.278l0.666-0.678c-0.047-0.057-0.107-0.145-0.189-0.259    c-0.082-0.115-0.146-0.214-0.193-0.297c-0.086-0.15-0.1-0.292-0.039-0.426l-0.088-0.084c-0.135,0.095-0.262,0.211-0.387,0.35    c-0.125,0.139-0.24,0.307-0.354,0.501l0.172,0.29c-0.313,0.55-0.602,0.984-0.867,1.301c-0.305,0.366-0.67,0.693-1.092,0.979    c0.018-0.357,0.023-0.682,0.012-0.974l-0.041-0.983c-0.018-0.468-0.053-0.915-0.105-1.338c-0.061-0.48-0.135-0.88-0.223-1.203    c-0.1-0.36-0.211-0.576-0.33-0.644c-0.088-0.05-0.189-0.005-0.314,0.131c-0.084,0.09-0.176,0.226-0.279,0.409    c-0.072,0.128-0.115,0.247-0.127,0.36c-0.014,0.11-0.006,0.265,0.023,0.461c0.039,0.245,0.086,0.458,0.143,0.643    c0.064,0.209,0.127,0.331,0.195,0.366c0.031,0.02,0.078,0.031,0.137,0.036c0.115,0.005,0.191,0.019,0.23,0.041    c0.055,0.031,0.104,0.126,0.143,0.285c0.027,0.117,0.051,0.264,0.07,0.443c0.035,0.516,0.053,0.893,0.057,1.129    c0.002,0.216-0.004,0.578-0.018,1.084c-0.588,0.233-1.209,0.341-1.863,0.326c-0.166,0.159-0.318,0.349-0.461,0.563    c-0.02,0.041-0.049,0.087-0.084,0.14c0.338,0.192,0.693,0.368,1.072,0.53C228.098,188.217,228.463,188.35,228.816,188.457z     M228.406,187.069c0.262-0.05,0.469-0.11,0.621-0.173c-0.004,0.207-0.014,0.354-0.027,0.437c-0.014,0.084-0.043,0.158-0.076,0.222    c-0.061,0.105-0.225,0.103-0.496-0.003c-0.158-0.064-0.412-0.194-0.762-0.391C227.896,187.15,228.145,187.121,228.406,187.069z     M234.117,184.704c-0.158,0.106-0.309,0.21-0.441,0.307c-0.162,0.407-0.328,0.803-0.49,1.189    c-0.273,0.638-0.543,1.248-0.805,1.827c-0.264,0.579-0.482,1.021-0.656,1.329c-0.021,0.038-0.07,0.111-0.141,0.22    c-0.07,0.107-0.133,0.203-0.189,0.283l0.053,0.089c0.297-0.173,0.496-0.305,0.607-0.399c0.213-0.172,0.383-0.377,0.518-0.614    c0.17-0.299,0.391-0.756,0.67-1.371c0.227-0.493,0.467-1.053,0.727-1.681c0.258-0.626,0.461-1.119,0.605-1.484    C234.43,184.494,234.277,184.594,234.117,184.704z M228.287,200.011l-0.693,0.462l0.506,0.779l0.711-0.446L228.287,200.011z     M230.209,197.375c0.084,0.366,0.121,0.626,0.107,0.786c-0.025,0.23-0.135,0.519-0.33,0.868l-2.17-1.229l-0.344-0.195    c-0.096-0.055-0.154-0.167-0.164-0.338c-0.016-0.205,0.094-0.586,0.34-1.143c0.621-1.162,1.004-1.907,1.148-2.23    c0.23-0.52,0.391-0.99,0.477-1.41l-1.033,0.551c0.055,0.171,0.074,0.348,0.061,0.525c-0.014,0.146-0.057,0.317-0.127,0.517    c-0.072,0.2-0.197,0.481-0.379,0.843c-0.178,0.363-0.354,0.717-0.525,1.06c-0.205,0.429-0.355,0.798-0.463,1.109    c-0.104,0.312-0.143,0.569-0.115,0.772c0.027,0.231,0.143,0.403,0.344,0.516l0.311,0.174v0.002l2.527,1.431l0.611-1.082    c0.297-0.525,0.473-0.924,0.521-1.197c0.033-0.18,0.018-0.466-0.045-0.856L230.209,197.375z M224.191,196.051l1.443-3.771    l0.174,0.192c0.08-0.065,0.176-0.175,0.299-0.33c0.117-0.155,0.219-0.307,0.303-0.454c-0.117-0.146-0.234-0.289-0.348-0.431    c-0.145-0.196-0.168-0.378-0.072-0.549l-0.037-0.086c-0.164,0.128-0.316,0.271-0.453,0.43c-0.139,0.159-0.264,0.34-0.377,0.543    l0.166,0.243l-1.602,4.058l-1.432-0.812l0.164-0.292c0.189-0.334,0.307-0.621,0.357-0.858c0.029-0.16,0.039-0.364,0.02-0.614    l-0.559,0.319c0.029,0.233,0.047,0.37,0.051,0.411c0.018,0.252-0.021,0.46-0.115,0.626c-0.043,0.076-0.102,0.125-0.178,0.146    c-0.076,0.02-0.156,0.009-0.234-0.037c-0.172-0.096-0.275-0.23-0.313-0.399c-0.043-0.19-0.012-0.475,0.094-0.849l0.143-0.468    l-0.336,0.16c-0.035,0.112-0.072,0.214-0.111,0.307c-0.035,0.091-0.08,0.185-0.131,0.275c-0.094,0.168-0.225,0.259-0.385,0.268  
            c-0.148,0.009-0.332-0.05-0.551-0.175l-0.297-0.17c-0.189-0.106-0.314-0.265-0.373-0.474c-0.053-0.175-0.064-0.393-0.037-0.664    c0.021-0.154,0.061-0.391,0.133-0.709l-0.332,0.162c-0.037,0.119-0.074,0.225-0.115,0.315c-0.041,0.091-0.084,0.179-0.131,0.266    c-0.117,0.204-0.277,0.292-0.488,0.262c-0.127-0.018-0.311-0.094-0.553-0.229l-0.852-0.486l-0.002,0.002l-0.311-0.176    c-0.096-0.056-0.152-0.17-0.164-0.34c-0.016-0.204,0.096-0.584,0.34-1.142c0.623-1.164,1.006-1.906,1.148-2.23    c0.234-0.52,0.393-0.99,0.479-1.41l-1.033,0.551c0.055,0.172,0.072,0.347,0.059,0.524c-0.01,0.146-0.055,0.32-0.127,0.519    c-0.07,0.2-0.197,0.48-0.377,0.843c-0.18,0.361-0.354,0.714-0.525,1.06c-0.205,0.428-0.357,0.798-0.461,1.108    c-0.107,0.312-0.145,0.569-0.119,0.77c0.029,0.233,0.146,0.405,0.346,0.519l0.311,0.175l0.855,0.485    c0.266,0.149,0.469,0.24,0.611,0.266c0.139,0.028,0.311,0.028,0.512,0.003c0.1,0.172,0.186,0.306,0.266,0.402    c0.121,0.145,0.258,0.263,0.412,0.35l0.287,0.162c0.262,0.15,0.484,0.24,0.664,0.271c0.125,0.024,0.287,0.021,0.488-0.01    c0.057,0.158,0.143,0.302,0.248,0.43s0.254,0.248,0.443,0.354l0.029,0.017l2.189,1.241L224.191,196.051z M211.332,183.611    l-0.508-0.779l-0.701,0.453l0.516,0.785L211.332,183.611z M210.086,183.45l-0.502-0.787l-0.709,0.442l0.52,0.792L210.086,183.45z     M211.693,189.742c-0.152-0.27-0.252-0.536-0.293-0.797c-0.049-0.262-0.029-0.464,0.055-0.61c0.082-0.147,0.266-0.2,0.549-0.159    c0.281,0.042,0.629,0.177,1.039,0.408c0.172,0.099,0.332,0.208,0.48,0.329c0.145,0.12,0.305,0.266,0.477,0.436l0.129-0.026    c-0.078-0.427-0.145-0.704-0.203-0.833c-0.137-0.313-0.387-0.571-0.75-0.775c-0.457-0.261-0.898-0.355-1.324-0.284    c-0.426,0.072-0.736,0.283-0.932,0.631c-0.096,0.165-0.166,0.351-0.211,0.558c-0.047,0.205-0.064,0.403-0.061,0.589l-0.752-0.426    v-0.001l-0.637-0.358c-0.096-0.055-0.104-0.263-0.021-0.622c0.057-0.234,0.164-0.583,0.328-1.044l0.297-0.838    c0.064-0.207,0.129-0.404,0.195-0.594c0.064-0.188,0.135-0.384,0.209-0.582c-0.15,0.054-0.285,0.114-0.398,0.184    c-0.135,0.086-0.234,0.18-0.289,0.28c-0.018,0.022-0.041,0.09-0.078,0.203c-0.039,0.11-0.061,0.18-0.066,0.207    c-0.631-0.05-1.195-0.015-1.701,0.106c-0.506,0.121-0.83,0.31-0.975,0.563c-0.039,0.07,0.041,0.194,0.24,0.367    c0.199,0.174,0.471,0.358,0.809,0.551c0.152,0.084,0.32,0.119,0.508,0.106c0.189-0.016,0.375-0.081,0.557-0.196    c-0.17,0.471-0.27,0.876-0.303,1.218c-0.043,0.455,0.041,0.743,0.254,0.863l0.324,0.184l1.104,0.626    c0.494,0.277,1.064,0.529,1.715,0.75c0.65,0.222,1.242,0.378,1.781,0.467l0.764-0.632c-0.654-0.15-1.154-0.278-1.504-0.387    C212.658,190.095,212.221,189.943,211.693,189.742z M209.037,186.695c-0.268,0.095-0.49,0.094-0.664-0.007    c-0.146-0.081-0.258-0.153-0.332-0.216c-0.074-0.06-0.133-0.122-0.182-0.183c0.193-0.105,0.391-0.168,0.594-0.182    c0.205-0.016,0.463,0.004,0.77,0.057L209.037,186.695z M217.549,182.451c0.209-0.174,0.385-0.379,0.518-0.615    c0.17-0.298,0.393-0.755,0.672-1.371c0.225-0.493,0.467-1.054,0.723-1.679c0.262-0.626,0.463-1.122,0.605-1.486    c-0.143,0.096-0.295,0.197-0.455,0.305c-0.16,0.107-0.307,0.209-0.439,0.307c-0.166,0.407-0.33,0.804-0.492,1.191    c-0.275,0.638-0.543,1.247-0.805,1.825c-0.264,0.578-0.482,1.021-0.656,1.328c-0.021,0.04-0.068,0.113-0.139,0.221    c-0.07,0.107-0.137,0.203-0.193,0.283l0.055,0.088C217.234,182.677,217.438,182.542,217.549,182.451z M216.674,180.898    c-0.492-0.121-1.002-0.199-1.527-0.233c-0.221-0.259-0.379-0.471-0.471-0.635c-0.111-0.213-0.137-0.379-0.066-0.5    c0.057-0.101,0.184-0.148,0.385-0.14c0.199,0.007,0.367,0.051,0.51,0.131c0.117,0.065,0.232,0.207,0.344,0.423    c0.016,0.028,0.055,0.107,0.121,0.245l0.559-0.451c-0.041-0.203-0.07-0.326-0.084-0.371c-0.076-0.21-0.223-0.376-0.445-0.502    c-0.238-0.135-0.549-0.143-0.93-0.023c-0.295,0.094-0.596,0.249-0.906,0.464c-0.258,0.183-0.414,0.32-0.469,0.414    c-0.066,0.118-0.051,0.269,0.041,0.456l0.348,0.583c-0.117,0.038-0.234,0.091-0.348,0.16c-0.129,0.079-0.252,0.174-0.369,0.289    l0.096,0.153c0.42-0.1,0.842-0.136,1.27-0.108c0.367,0.026,0.807,0.11,1.318,0.252L216.674,180.898z M222.355,180.13l-0.523-0.793    l-0.695,0.461l0.508,0.779L222.355,180.13z M216.695,185.063c0.205,0.193,0.408,0.348,0.611,0.463    c0.223,0.126,0.563,0.18,1.027,0.161c0.488-0.018,0.938-0.112,1.354-0.281c0.477-0.192,0.805-0.449,0.988-0.776l4.811,2.725    l0.438-0.772l-0.268-0.15c-0.109-0.097-0.254-0.409-0.428-0.934c-0.229-0.676-0.404-1.145-0.523-1.409    c-0.244-0.527-0.514-0.876-0.816-1.047c-0.307-0.175-0.615-0.222-0.924-0.144c-0.215,0.055-0.428,0.166-0.639,0.336    c0.166,0.066,0.322,0.143,0.477,0.228c0.244,0.14,0.463,0.318,0.656,0.537c0.172,0.193,0.338,0.445,0.504,0.754    c0.135,0.247,0.283,0.572,0.455,0.977l-3.305-1.871l0.174-0.306c0.178-0.314,0.273-0.633,0.289-0.961    c0.008-0.29-0.041-0.617-0.158-0.979l-0.646,0.554c0.074,0.331,0.107,0.63,0.102,0.898c-0.012,0.334-0.08,0.619-0.215,0.854    c-0.152,0.271-0.457,0.501-0.912,0.69c-0.455,0.189-0.93,0.29-1.428,0.3c-0.549,0.009-1.012-0.093-1.391-0.306    c-0.17-0.099-0.354-0.227-0.543-0.385c-0.186-0.16-0.367-0.315-0.541-0.463l-0.176,0.134c0.166,0.199,0.33,0.398,0.498,0.597    C216.365,184.725,216.543,184.917,216.695,185.063z M221.984,187.485l0.713-0.446l-0.523-0.794l-0.695,0.462L221.984,187.485z     M173.379,173.69c0-0.649,0.057-1.253,0.127-1.832l-0.036-0.035c-0.844,0.071-1.538,0.125-2.097,0.125    c-0.96,0-1.44-0.134-1.698-0.649h-0.309c0.017,1.253-0.01,1.831,1.564,1.831c0.329,0,1.463-0.054,1.875-0.071    c-0.063,0.364-0.207,1.368-0.207,2.044c0,1.483,0.349,2.906,1.077,4.719c0.301-0.347,0.64-0.676,0.896-1.014    C173.656,176.932,173.379,175.218,173.379,173.69z M178.197,174.605c-0.285,0.444-0.575,0.958-0.878,1.474    c0.593,0.356,1.163,0.72,1.74,1.208c0.498-0.693,0.781-1.234,0.781-1.377C179.84,175.76,179.407,175.298,178.197,174.605z     M122.291,184.552l-0.035-0.035c-0.844,0.071-1.537,0.124-2.098,0.124c-0.958,0-1.438-0.133-1.696-0.648h-0.311    c0.018,1.252-0.008,1.83,1.564,1.83c0.329,0,1.467-0.054,1.875-0.071c-0.063,0.365-0.205,1.368-0.205,2.044    c0,1.484,0.347,2.905,1.076,4.717c0.302-0.346,0.639-0.674,0.898-1.012c-0.917-1.875-1.191-3.59-1.191-5.119    C122.167,185.733,122.221,185.13,122.291,184.552z M127.445,184.641c-1.405,0-2.691,1.929-2.675,4.301    c0.019,2.151,1.315,2.816,2.329,2.816c0.987,0,2.08-0.764,2.409-1.403c0.221-0.436,0.292-1.351,0.292-1.964    C129.801,186.916,128.858,184.641,127.445,184.641z M127.251,190.469c-1.112,0-1.929-1.056-1.929-1.838    c0-1.075,0.959-2.666,1.938-2.666c1.368,0,2.035,2.576,2.035,3.083C129.294,189.279,128.539,190.469,127.251,190.469z     M256.141,218.829l-0.07-0.063c-0.678,0.311-1.369,0.382-1.84,0.382c-1.129,0-1.779-0.524-1.779-0.932    c0-0.445,1.041-1.218,2.188-1.759c0.105-0.197,0.303-0.667,0.383-0.952c-0.223,0.017-0.445,0.036-0.648,0.036    c-1.564,0-2.463-0.587-2.463-0.96c0-0.205,0.916-0.773,2.078-1.342c0.133-0.426,0.348-0.888,0.48-1.181l-0.096-0.116  
                c-0.988,0.445-2.15,1.191-2.572,1.653c-0.359,0.4-0.582,0.977-0.582,1.537c0,0.756,0.674,1.254,1.705,1.351    c-0.676,0.613-1.146,1.164-1.146,2.052c0,1.307,1.057,1.77,2.035,1.77c0.648,0,1.422-0.161,1.51-0.25    C255.455,219.912,256.049,219.068,256.141,218.829z M258.113,215.39c-0.285,0.444-0.576,0.959-0.875,1.475    c0.59,0.356,1.16,0.721,1.736,1.209c0.5-0.694,0.783-1.235,0.783-1.377C259.758,216.545,259.322,216.083,258.113,215.39z     M264.717,216.697c0-0.152-0.434-0.614-1.641-1.307c-0.285,0.444-0.58,0.959-0.883,1.475c0.598,0.356,1.166,0.721,1.742,1.209    C264.432,217.38,264.717,216.838,264.717,216.697z M269.801,247.812l0.15,0.091c0.791-1.058,0.791-1.28,0.791-1.795    c0-1.431-0.363-2.684-0.783-3.883l0.008-0.019c0.225,0.107,0.465,0.161,0.688,0.161c0.521,0,1.012-0.258,1.207-0.773l0.037-0.009    c0.301,0.23,0.594,0.338,0.867,0.338c0.668,0,1.193-0.641,1.193-1.715c0-0.223-0.027-0.453-0.07-0.711    c-0.143-0.044-0.283-0.071-0.426-0.071c0.016,0.124,0.025,0.249,0.025,0.354c0,0.676-0.355,0.951-0.703,0.951    c-0.418,0-0.703-0.338-0.924-1.333c-0.125,0.036-0.246,0.08-0.373,0.133c0.027,0.206,0.035,0.382,0.035,0.542    c0,0.835-0.311,1.075-0.816,1.075c-0.293,0-0.924-0.151-1.227-0.533c-0.203-0.257-0.48-0.816-0.604-1.19h-0.152    c-0.193,0.267-0.373,0.568-0.576,0.924c0.932,2.257,1.803,4.647,1.803,6.424C269.951,247.155,269.934,247.44,269.801,247.812z     M277.336,244.037c0-0.151-0.436-0.614-1.643-1.307c-0.285,0.445-0.576,0.96-0.879,1.476c0.594,0.356,1.164,0.72,1.738,1.209    C277.051,244.72,277.336,244.178,277.336,244.037z M282.295,244.037c0-0.151-0.432-0.614-1.641-1.307    c-0.285,0.445-0.58,0.96-0.883,1.476c0.598,0.356,1.166,0.72,1.744,1.209C282.012,244.72,282.295,244.178,282.295,244.037z     M280.682,269.647c0-0.124-0.008-0.257-0.018-0.391c-0.105-0.044-0.223-0.089-0.371-0.124c-0.152,1.51-0.979,1.831-1.584,1.831    c-0.461,0-1.289-0.116-1.697-0.632c-0.203-0.257-0.479-0.816-0.604-1.19h-0.15c-0.195,0.267-0.373,0.568-0.578,0.924    c0.934,2.257,1.83,4.541,1.83,6.425c0,0.381-0.033,0.747-0.113,1.092l0.148,0.088c0.721-1.093,0.758-1.395,0.758-1.848    c0-1.43-0.348-2.613-0.764-3.813l0.018-0.027c0.381,0.107,0.734,0.161,1.047,0.161    C279.99,272.145,280.682,271.159,280.682,269.647z M285.803,275.886l-0.07-0.063c-0.676,0.311-1.369,0.382-1.84,0.382    c-1.129,0-1.779-0.524-1.779-0.933c0-0.444,1.043-1.217,2.188-1.759c0.105-0.195,0.303-0.666,0.383-0.95    c-0.223,0.017-0.445,0.035-0.65,0.035c-1.563,0-2.459-0.587-2.459-0.959c0-0.204,0.914-0.774,2.08-1.342    c0.131-0.427,0.346-0.888,0.479-1.182l-0.1-0.115c-0.984,0.445-2.146,1.191-2.566,1.653c-0.361,0.4-0.584,0.978-0.584,1.537    c0,0.756,0.674,1.253,1.703,1.351c-0.676,0.613-1.145,1.164-1.145,2.052c0,1.306,1.055,1.768,2.033,1.768    c0.65,0,1.422-0.159,1.512-0.249C285.119,276.97,285.715,276.126,285.803,275.886z M287.777,272.446    c-0.285,0.444-0.578,0.96-0.881,1.476c0.596,0.355,1.164,0.718,1.74,1.208c0.5-0.693,0.783-1.235,0.783-1.377    C289.42,273.602,288.984,273.14,287.777,272.446z M278.018,300.74c-0.152,1.508-0.979,1.828-1.582,1.828    c-0.463,0-1.289-0.116-1.695-0.629c-0.205-0.261-0.482-0.818-0.605-1.191h-0.152c-0.195,0.265-0.371,0.569-0.576,0.923    c0.934,2.257,1.83,4.543,1.83,6.423c0,0.386-0.035,0.746-0.115,1.095l0.15,0.089c0.719-1.091,0.756-1.396,0.756-1.85    c0-1.431-0.348-2.609-0.764-3.809l0.018-0.028c0.383,0.108,0.734,0.161,1.049,0.161c1.385,0,2.076-0.986,2.076-2.499    c0-0.124-0.006-0.256-0.016-0.389C278.283,300.82,278.168,300.771,278.018,300.74z M280.541,304.052    c-0.281,0.445-0.576,0.959-0.877,1.477c0.596,0.353,1.162,0.717,1.74,1.207c0.496-0.694,0.781-1.236,0.781-1.375    C282.186,305.207,281.75,304.746,280.541,304.052z M285.502,304.052c-0.285,0.445-0.578,0.959-0.879,1.477    c0.594,0.353,1.164,0.717,1.74,1.207c0.5-0.694,0.781-1.236,0.781-1.375C287.145,305.207,286.711,304.746,285.502,304.052z     M265.879,329.178c-0.402-0.47-0.951-1.047-1.291-1.596l-0.123-0.021c-0.23,0.313-0.461,0.678-0.684,1.034    c1.031,2.05,2.123,4.904,2.123,6.744c0,0.244-0.018,0.478-0.063,0.69l0.143,0.079c0.357-0.488,0.709-1.154,0.709-1.579    c0-1.243-0.646-3.625-1.252-4.888L265.879,329.178z M270.471,327.59c-0.213,0.196-0.514,0.468-0.746,0.729    c-0.557,2.382-1.48,4.875-2.324,6.563c0.16,0.385,0.301,0.634,0.541,1.095h0.08c0.721-1.784,1.715-4.88,2.123-6.415h0.035    c0.318,1.548,1.43,4.872,2.416,6.415h0.109c0.238-0.349,0.461-0.638,0.701-0.941c-1.475-2.623-2.383-5.314-2.855-7.446H270.471z     M275.068,330.894c-0.285,0.444-0.578,0.962-0.881,1.476c0.596,0.356,1.166,0.722,1.744,1.21c0.496-0.692,0.779-1.238,0.779-1.379    C276.711,332.048,276.277,331.587,275.068,330.894z M252.449,349.182c-0.398-0.469-0.949-1.046-1.287-1.6l-0.123-0.017    c-0.234,0.31-0.465,0.674-0.688,1.031c1.033,2.053,2.123,4.903,2.123,6.743c0,0.25-0.018,0.481-0.061,0.694l0.143,0.081    c0.355-0.49,0.711-1.155,0.711-1.584c0-1.244-0.65-3.625-1.254-4.885L252.449,349.182z M258.404,348.151l-0.033-0.036    c-0.846,0.072-1.539,0.124-2.098,0.124c-0.961,0-1.439-0.132-1.697-0.646h-0.313c0.02,1.251-0.008,1.828,1.566,1.828    c0.326,0,1.463-0.052,1.873-0.072c-0.063,0.365-0.205,1.372-0.205,2.046c0,1.482,0.346,2.906,1.076,4.72    c0.301-0.35,0.641-0.679,0.896-1.016c-0.916-1.872-1.191-3.588-1.191-5.116C258.279,349.334,258.332,348.729,258.404,348.151z     M261.639,350.897c-0.283,0.446-0.576,0.959-0.877,1.476c0.594,0.354,1.162,0.718,1.74,1.207c0.5-0.693,0.781-1.234,0.781-1.375    C263.283,352.053,262.848,351.592,261.639,350.897z M236.668,364.295c-0.4-0.474-0.951-1.051-1.287-1.601l-0.125-0.021    c-0.232,0.313-0.463,0.679-0.686,1.031c1.033,2.053,2.123,4.903,2.123,6.744c0,0.249-0.018,0.481-0.061,0.693l0.141,0.081    c0.357-0.489,0.711-1.155,0.711-1.58c0-1.247-0.648-3.629-1.252-4.888L236.668,364.295z M241.359,363.353    c-1.402,0-2.689,1.928-2.674,4.298c0.02,2.149,1.318,2.818,2.328,2.818c0.986,0,2.08-0.765,2.408-1.403    c0.223-0.437,0.295-1.351,0.295-1.964C243.717,365.626,242.773,363.353,241.359,363.353z M241.164,369.179    c-1.109,0-1.928-1.056-1.928-1.837c0-1.075,0.959-2.667,1.938-2.667c1.369,0,2.035,2.578,2.035,3.084    C243.209,367.987,242.453,369.179,241.164,369.179z M245.857,366.007c-0.285,0.445-0.578,0.962-0.879,1.476    c0.594,0.357,1.164,0.722,1.742,1.207c0.498-0.69,0.783-1.231,0.783-1.375C247.504,367.161,247.066,366.7,245.857,366.007z     M219.246,375.101c-0.398-0.473-0.949-1.051-1.287-1.6l-0.123-0.016c-0.232,0.308-0.463,0.673-0.686,1.029    c1.031,2.054,2.123,4.905,2.123,6.745c0,0.244-0.02,0.478-0.063,0.689l0.143,0.08c0.355-0.489,0.711-1.154,0.711-1.58    c0-1.242-0.648-3.624-1.252-4.887L219.246,375.101z M224.555,380.573c-1.129,0-1.779-0.524-1.779-0.934    c0-0.445,1.041-1.219,2.188-1.76c0.105-0.192,0.303-0.666,0.381-0.951c-0.221,0.021-0.443,0.037-0.646,0.037    c-1.564,0-2.461-0.586-2.461-0.959c0-0.204,0.914-0.773,2.076-1.344c0.133-0.425,0.348-0.886,0.48-1.178l-0.096-0.116    c-0.988,0.44-2.15,1.187-2.568,1.651c-0.363,0.401-0.586,0.979-0.586,1.536c0,0.757,0.676,1.255,1.703,1.351    c-0.674,0.613-1.145,1.163-1.145,2.054c0,1.307,1.057,1.768,2.035,1.768c0.646,0,1.42-0.16,1.51-0.248    c0.133-0.141,0.729-0.986,0.816-1.228l-0.07-0.06C225.717,380.501,225.025,380.573,224.555,380.573z M228.438,376.813    c-0.285,0.445-0.578,0.962-0.879,1.477c0.594,0.355,1.164,0.722,1.74,1.21c0.5-0.693,0.785-1.234,0.785-1.379    C230.084,377.972,229.646,377.506,228.438,376.813z M198.689,383.686c-0.4-0.469-0.949-1.047-1.287-1.6l-0.125-0.017    c-0.23,0.309-0.463,0.674-0.684,1.03c1.029,2.053,2.123,4.904,2.123,6.745c0,0.248-0.018,0.481-0.063,0.693l0.143,0.076    c0.355-0.485,0.713-1.15,0.713-1.58c0-1.242-0.65-3.624-1.256-4.883L198.689,383.686z M205.65,382.093    c0.018,0.126,0.023,0.25,0.023,0.357c0,0.674-0.352,0.951-0.701,0.951c-0.418,0-0.703-0.337-0.922-1.332    c-0.127,0.036-0.248,0.081-0.375,0.133c0.027,0.204,0.035,0.381,0.035,0.541c0,0.838-0.311,1.075-0.816,1.075    c-0.293,0-0.924-0.152-1.227-0.533c-0.201-0.258-0.479-0.818-0.604-1.192h-0.15c-0.193,0.27-0.375,0.57-0.576,0.928    c0.932,2.257,1.801,4.646,1.801,6.423c0,0.385-0.016,0.666-0.15,1.038l0.15,0.089c0.793-1.055,0.793-1.279,0.793-1.793    c0-1.431-0.365-2.683-0.783-3.886l0.008-0.015c0.223,0.107,0.463,0.159,0.686,0.159c0.523,0,1.012-0.256,1.209-0.773l0.033-0.008    c0.303,0.233,0.598,0.337,0.873,0.337c0.664,0,1.189-0.642,1.189-1.712c0-0.225-0.027-0.457-0.07-0.715    C205.934,382.122,205.793,382.093,205.65,382.093z M207.881,385.402c-0.285,0.44-0.576,0.957-0.881,1.476    c0.596,0.352,1.166,0.717,1.742,1.206c0.498-0.693,0.781-1.234,0.781-1.379C209.523,386.556,209.09,386.095,207.881,385.402z     M172.103,386.761c-0.399-0.47-0.953-1.047-1.29-1.596l-0.124-0.02c-0.23,0.309-0.461,0.673-0.686,1.03    c1.033,2.053,2.125,4.903,2.125,6.744c0,0.248-0.016,0.481-0.062,0.693l0.142,0.08c0.355-0.488,0.71-1.154,0.71-1.583    c0-1.243-0.646-3.626-1.251-4.889L172.103,386.761z M178.769,385.165c-0.152,1.508-0.978,1.828-1.583,1.828    c-0.461,0-1.287-0.115-1.696-0.63c-0.205-0.26-0.481-0.817-0.604-1.19h-0.15c-0.197,0.265-0.373,0.565-0.578,0.922    c0.932,2.258,1.828,4.544,1.828,6.424c0,0.381-0.036,0.746-0.116,1.095l0.152,0.089c0.722-1.092,0.754-1.396,0.754-1.849    c0-1.432-0.345-2.61-0.762-3.81l0.016-0.028c0.38,0.104,0.738,0.16,1.05,0.16c1.386,0,2.077-0.985,2.077-2.497    c0-0.125-0.008-0.258-0.018-0.394C179.033,385.245,178.917,385.197,178.769,385.165z M181.293,388.478    c-0.285,0.444-0.578,0.958-0.881,1.475c0.596,0.354,1.162,0.719,1.742,1.207c0.498-0.693,0.783-1.234,0.783-1.375  
                C182.938,389.632,182.5,389.171,181.293,388.478z M140.965,380.606c-0.401-0.47-0.951-1.047-1.29-1.601l-0.124-0.016    c-0.23,0.313-0.463,0.674-0.684,1.03c1.03,2.054,2.123,4.904,2.123,6.744c0,0.249-0.019,0.478-0.062,0.694l0.142,0.08    c0.355-0.489,0.712-1.155,0.712-1.585c0-1.242-0.65-3.624-1.255-4.887L140.965,380.606z M145.923,380.606 
                c-0.399-0.47-0.951-1.047-1.29-1.601l-0.122-0.016c-0.23,0.313-0.463,0.674-0.684,1.03c1.028,2.054,2.122,4.904,2.122,6.744   
                    c0,0.249-0.016,0.478-0.06,0.694l0.14,0.08c0.357-0.489,0.712-1.155,0.712-1.585c0-1.242-0.648-3.624-1.253-4.887L145.923,380.606
                        z M150.155,382.322c-0.285,0.444-0.579,0.959-0.88,1.476c0.595,0.354,1.165,0.718,1.742,1.207    
                        c0.497-0.694,0.782-1.235,0.782-1.376C151.799,383.478,151.362,383.017,150.155,382.322z M111.174,366.877  
                        c-0.4-0.474-0.951-1.051-1.288-1.601l-0.125-0.021c-0.23,0.313-0.462,0.678-0.685,1.035c1.032,2.053,2.124,4.904,2.124,6.745    c0,0.248-0.018,0.477-0.062,0.689l0.143,0.08c0.354-0.485,0.71-1.155,0.71-1.58c0-1.243-0.648-3.625-1.254-4.888L111.174,366.877z     M115.404,368.593c-0.284,0.441-0.578,0.958-0.878,1.472c0.594,0.356,1.163,0.722,1.74,1.211c0.497-0.694,0.782-1.234,0.782-1.379    C117.048,369.748,116.613,369.282,115.404,368.593z M120.364,368.593c-0.285,0.441-0.579,0.958-0.88,1.472    c0.595,0.356,1.165,0.722,1.742,1.211c0.499-0.694,0.782-1.234,0.782-1.379C122.008,369.748,121.573,369.282,120.364,368.593z     M79.597,330.962c-1.031,0-2,1.251-2,2.257c0,1.227,0.835,1.76,2.054,1.76c0.266,0,0.55-0.027,0.835-0.071    c-0.036,0.204-0.054,0.417-0.054,0.629c0,1.199,0.507,2.506,1.164,3.866l0.098,0.021c0.212-0.285,0.399-0.554,0.746-1.044    c-1.012-1.644-1.35-3.136-1.35-4.361C81.09,331.663,80.308,330.962,79.597,330.962z M80.094,333.82    c-0.845,0-1.893-0.345-1.893-0.958c0-0.257,0.409-0.73,1.004-0.73c0.346,0,1.076,0.249,1.235,1.673    C80.335,333.82,80.219,333.82,80.094,333.82z M84.725,334.266c-0.284,0.444-0.579,0.959-0.878,1.476    c0.595,0.357,1.163,0.722,1.741,1.211c0.497-0.694,0.782-1.239,0.782-1.379C86.369,335.421,85.932,334.96,84.725,334.266z     M69.734,306.991c-0.213,0.196-0.515,0.47-0.746,0.729c-0.561,2.378-1.485,4.877-2.328,6.564c0.158,0.381,0.302,0.634,0.541,1.095    h0.081c0.719-1.784,1.715-4.88,2.123-6.416h0.036c0.32,1.548,1.432,4.868,2.417,6.416h0.106c0.241-0.35,0.462-0.642,0.702-0.942    c-1.475-2.622-2.381-5.313-2.852-7.446H69.734z M74.791,307.637c-1.404,0-2.691,1.933-2.673,4.303    c0.017,2.153,1.314,2.818,2.328,2.818c0.985,0,2.078-0.766,2.408-1.403c0.222-0.437,0.292-1.351,0.292-1.964    C77.145,309.914,76.203,307.637,74.791,307.637z M74.595,313.468c-1.111,0-1.927-1.059-1.927-1.837    c0-1.075,0.959-2.667,1.936-2.667c1.37,0,2.036,2.579,2.036,3.084C76.639,312.276,75.884,313.468,74.595,313.468z M67.525,285.691    c0.24-0.349,0.462-0.641,0.702-0.942c-1.475-2.623-2.381-5.314-2.853-7.447h-0.079c-0.213,0.195-0.515,0.471-0.747,0.728    c-0.561,2.383-1.483,4.878-2.328,6.568c0.159,0.381,0.302,0.629,0.541,1.094h0.08c0.72-1.788,1.715-4.879,2.123-6.416h0.036    c0.32,1.546,1.432,4.868,2.417,6.416H67.525z M69.89,280.607c-0.285,0.444-0.577,0.959-0.878,1.475    c0.593,0.355,1.163,0.72,1.74,1.209c0.497-0.693,0.782-1.235,0.782-1.377C71.534,281.763,71.098,281.3,69.89,280.607z     M69.029,253.569c0.214-0.232,0.41-0.436,0.631-0.657c0.614-2.382,1.493-4.95,2.337-6.638c-0.16-0.382-0.303-0.631-0.542-1.093    h-0.08c-0.72,1.785-1.67,4.877-2.079,6.451h-0.036c-0.319-1.582-1.474-4.905-2.461-6.451h-0.107    c-0.24,0.346-0.462,0.639-0.702,0.941c1.475,2.622,2.443,5.314,2.958,7.447H69.029z M73.776,252.947    c0.986,0,2.079-0.765,2.407-1.403c0.222-0.436,0.294-1.351,0.294-1.965c0-1.476-0.943-3.75-2.356-3.75    c-1.402,0-2.69,1.929-2.673,4.301C71.466,252.281,72.764,252.947,73.776,252.947z M73.936,247.154    c1.368,0,2.035,2.576,2.035,3.083c0,0.231-0.755,1.421-2.043,1.421c-1.111,0-1.929-1.058-1.929-1.838    C71.999,248.744,72.958,247.154,73.936,247.154z M90.041,212.216c-0.721,1.786-1.67,4.878-2.079,6.451h-0.035    c-0.32-1.582-1.476-4.905-2.462-6.451h-0.106c-0.24,0.346-0.462,0.639-0.702,0.941c1.474,2.621,2.442,5.314,2.958,7.447h0.08    c0.213-0.232,0.409-0.437,0.63-0.659c0.614-2.381,1.494-4.949,2.338-6.637c-0.161-0.383-0.303-0.63-0.542-1.093H90.041z     M92.325,215.521c-0.284,0.444-0.578,0.959-0.879,1.475c0.595,0.355,1.164,0.72,1.741,1.208c0.498-0.693,0.782-1.235,0.782-1.377    C93.969,216.677,93.534,216.215,92.325,215.521z"/>
        </g>
    </g> -->
</svg>