<?xml version="1.0" encoding="utf-8"?>
<!-- Generator: Adobe Illustrator 16.0.0, SVG Export Plug-In . SVG Version: 6.00 Build 0)  -->
<!DOCTYPE svg PUBLIC "-//W3C//DTD SVG 1.1//EN" "http://www.w3.org/Graphics/SVG/1.1/DTD/svg11.dtd">
<svg version="1.1" id="Layer_1" xmlns="http://www.w3.org/2000/svg" xmlns:xlink="http://www.w3.org/1999/xlink" x="0px" y="0px"
	 width="500px" height="500px" viewBox="0 0 500 500" enable-background="new 0 0 500 500" xml:space="preserve">
<g>
	<path d="M454.61,249.571c-4.051,0-7.333-3.283-7.333-7.333c0-107.718-87.633-195.353-195.351-195.353
		c-91.443,0-169.702,62.124-190.312,151.074c-0.914,3.945-4.844,6.407-8.799,5.486c-3.943-0.913-6.401-4.854-5.487-8.799
		C69.488,99.015,153.62,32.222,251.927,32.222c115.804,0,210.016,94.213,210.016,210.017
		C461.942,246.289,458.658,249.571,454.61,249.571z"/>
</g>
<g>
	<path d="M233.141,466.23c-56.095,0-108.833-21.845-148.501-61.511c-2.864-2.862-2.864-7.504,0-10.368
		c2.861-2.865,7.504-2.865,10.369,0c36.898,36.896,85.955,57.214,138.133,57.214c107.718,0,195.35-87.632,195.35-195.347
		c0-80.889-48.633-152.276-123.891-181.87c-3.771-1.482-5.625-5.739-4.144-9.508c1.481-3.764,5.729-5.62,9.505-4.14
		c80.913,31.814,133.192,108.561,133.192,195.518C443.156,372.021,348.944,466.23,233.141,466.23z"/>
</g>
<g>
	<circle cx="84.677" cy="198.234" r="37.885"/>
</g>
<g>
	<circle cx="110.649" cy="376.05" r="37.885"/>
</g>
</svg>
