<?xml version="1.0" encoding="utf-8"?>
<!-- Generator: Adobe Illustrator 16.0.0, SVG Export Plug-In . SVG Version: 6.00 Build 0)  -->
<!DOCTYPE svg PUBLIC "-//W3C//DTD SVG 1.1//EN" "http://www.w3.org/Graphics/SVG/1.1/DTD/svg11.dtd">
<svg version="1.1" id="Layer_1" xmlns="http://www.w3.org/2000/svg" xmlns:xlink="http://www.w3.org/1999/xlink" x="0px" y="0px"
	 width="500px" height="500px" viewBox="0 0 500 500" enable-background="new 0 0 500 500" xml:space="preserve">
<g>
	<path d="M252.343,464.148c-118.415,0-214.752-96.338-214.752-214.75c0-118.411,96.337-214.747,214.752-214.747
		c118.412,0,214.747,96.336,214.747,214.747C467.09,367.813,370.755,464.148,252.343,464.148z M252.343,50.19
		c-109.847,0-199.214,89.365-199.214,199.209c0,109.847,89.367,199.211,199.214,199.211c109.843,0,199.209-89.364,199.209-199.211
		C451.552,139.556,362.186,50.19,252.343,50.19z"/>
</g>
<g>
	<path d="M253.496,426.378c-18.529,0-33.604-15.075-33.604-33.604s15.075-33.604,33.604-33.604
		c18.528,0,33.601,15.075,33.601,33.604S272.024,426.378,253.496,426.378z"/>
</g>
</svg>
