<?xml version="1.0" encoding="utf-8"?>
<!-- Generator: Adobe Illustrator 16.0.0, SVG Export Plug-In . SVG Version: 6.00 Build 0)  -->
<!DOCTYPE svg PUBLIC "-//W3C//DTD SVG 1.1//EN" "http://www.w3.org/Graphics/SVG/1.1/DTD/svg11.dtd">
<svg version="1.1" id="Layer_1" xmlns="http://www.w3.org/2000/svg" xmlns:xlink="http://www.w3.org/1999/xlink" x="0px" y="0px"
	 width="500px" height="500px" viewBox="0 0 500 500" enable-background="new 0 0 500 500" xml:space="preserve">
<g>
	<path d="M197.579,369.373c-19.586,0-35.521-15.935-35.521-35.52c0-19.587,15.935-35.524,35.521-35.524
		c19.586,0,35.522,15.938,35.522,35.524C233.102,353.438,217.165,369.373,197.579,369.373z M197.579,317.116
		c-9.229,0-16.735,7.511-16.735,16.738c0,9.225,7.507,16.732,16.735,16.732c9.229,0,16.736-7.508,16.736-16.732
		C214.315,324.625,206.808,317.116,197.579,317.116z"/>
</g>
<g display="none">
	<path display="inline" d="M218.294,339.617c-2.557-0.617-4.896-2.167-6.463-4.531c-3.299-4.973-1.938-11.679,3.037-14.975
		l253.357-167.928c4.974-3.299,11.68-1.936,14.974,3.035c3.298,4.975,1.938,11.679-3.037,14.975L226.804,338.122
		C224.196,339.852,221.115,340.3,218.294,339.617z"/>
</g>
<g display="none">
	<path display="inline" d="M167.519,332.055c-2.131,0-4.282-0.627-6.163-1.938L17.345,229.887
		c-4.897-3.407-6.103-10.139-2.695-15.038c3.408-4.899,10.143-6.105,15.04-2.694L173.7,312.384
		c4.897,3.407,6.104,10.14,2.696,15.037C174.296,330.439,170.934,332.055,167.519,332.055z"/>
</g>
<ellipse cx="199.725" cy="331.68" rx="28.958" ry="28.617"/>
<g>
	<path d="M190.497,338.353c-0.632,0-1.274-0.134-1.886-0.416l-150-69.352c-2.256-1.043-3.239-3.718-2.196-5.974
		c1.042-2.256,3.714-3.238,5.973-2.196l150,69.352c2.256,1.043,3.239,3.718,2.196,5.974
		C193.824,337.385,192.197,338.353,190.497,338.353z"/>
</g>
<g>
	<path d="M202.952,345.236c-1.649,0-3.237-0.91-4.026-2.485c-1.114-2.222-0.215-4.925,2.007-6.039l254.997-127.785
		c2.223-1.114,4.927-0.213,6.039,2.007c1.113,2.222,0.215,4.926-2.008,6.039L204.964,344.759
		C204.317,345.083,203.629,345.236,202.952,345.236z"/>
</g>
</svg>
