<?xml version="1.0" encoding="utf-8"?>
<!-- Generator: Adobe Illustrator 24.0.1, SVG Export Plug-In . SVG Version: 6.00 Build 0)  -->
<svg version="1.1" id="Layer_1" xmlns="http://www.w3.org/2000/svg" xmlns:xlink="http://www.w3.org/1999/xlink" x="0px" y="0px"
	 viewBox="0 0 500 500" style="enable-background:new 0 0 500 500;" xml:space="preserve">
<g>
	<path d="M454.6,249.6c-4.1,0-7.3-3.3-7.3-7.3c0-107.7-87.6-195.4-195.4-195.4C160.5,46.9,82.2,109,61.6,198
		c-0.9,3.9-4.8,6.4-8.8,5.5c-3.9-0.9-6.4-4.9-5.5-8.8C69.5,99,153.6,32.2,251.9,32.2c115.8,0,210,94.2,210,210
		C461.9,246.3,458.7,249.6,454.6,249.6z"/>
</g>
<g>
	<path d="M233.1,466.2c-56.1,0-108.8-21.8-148.5-61.5c-2.9-2.9-2.9-7.5,0-10.4c2.9-2.9,7.5-2.9,10.4,0c36.9,36.9,86,57.2,138.1,57.2
		c107.7,0,195.4-87.6,195.4-195.3c0-80.9-48.6-152.3-123.9-181.9c-3.8-1.5-5.6-5.7-4.1-9.5c1.5-3.8,5.7-5.6,9.5-4.1
		c80.9,31.8,133.2,108.6,133.2,195.5C443.2,372,348.9,466.2,233.1,466.2z"/>
</g>
<g>
	<circle cx="84.7" cy="198.2" r="37.9"/>
</g>
<g>
	<circle cx="110.6" cy="376" r="37.9"/>
</g>
</svg>
