<?xml version="1.0" encoding="utf-8"?>
<!-- Generator: Adobe Illustrator 24.0.1, SVG Export Plug-In . SVG Version: 6.00 Build 0)  -->
<svg version="1.1" id="Layer_1" xmlns="http://www.w3.org/2000/svg" xmlns:xlink="http://www.w3.org/1999/xlink" x="0px" y="0px"
	 viewBox="0 0 500 500" style="enable-background:new 0 0 500 500;" xml:space="preserve">
<style type="text/css">
	.st0{display:none;}
	.st1{display:inline;}
	.st2{stroke:#000000;stroke-width:5;stroke-miterlimit:10;}
</style>
<g>
	<path d="M197.6,369.4c-19.6,0-35.5-15.9-35.5-35.5c0-19.6,15.9-35.5,35.5-35.5s35.5,15.9,35.5,35.5
		C233.1,353.4,217.2,369.4,197.6,369.4z M197.6,317.1c-9.2,0-16.7,7.5-16.7,16.7c0,9.2,7.5,16.7,16.7,16.7c9.2,0,16.7-7.5,16.7-16.7
		C214.3,324.6,206.8,317.1,197.6,317.1z"/>
</g>
<g class="st0">
	<path class="st1" d="M218.3,339.6c-2.6-0.6-4.9-2.2-6.5-4.5c-3.3-5-1.9-11.7,3-15l253.4-167.9c5-3.3,11.7-1.9,15,3
		c3.3,5,1.9,11.7-3,15L226.8,338.1C224.2,339.9,221.1,340.3,218.3,339.6z"/>
</g>
<g class="st0">
	<path class="st1" d="M167.5,332.1c-2.1,0-4.3-0.6-6.2-1.9l-144-100.2c-4.9-3.4-6.1-10.1-2.7-15c3.4-4.9,10.1-6.1,15-2.7l144,100.2
		c4.9,3.4,6.1,10.1,2.7,15C174.3,330.4,170.9,332.1,167.5,332.1z"/>
</g>
<ellipse cx="199.7" cy="331.7" rx="29" ry="28.6"/>
<g>
	<path class="st2" d="M190.5,338.4c-0.6,0-1.3-0.1-1.9-0.4l-150-69.4c-2.3-1-3.2-3.7-2.2-6c1-2.3,3.7-3.2,6-2.2l150,69.4
		c2.3,1,3.2,3.7,2.2,6C193.8,337.4,192.2,338.4,190.5,338.4z"/>
</g>
<g>
	<path class="st2" d="M203,345.2c-1.6,0-3.2-0.9-4-2.5c-1.1-2.2-0.2-4.9,2-6l255-127.8c2.2-1.1,4.9-0.2,6,2c1.1,2.2,0.2,4.9-2,6
		L205,344.8C204.3,345.1,203.6,345.2,203,345.2z"/>
</g>
</svg>
