<?xml version="1.0" encoding="utf-8"?>
<!-- Generator: Adobe Illustrator 24.0.1, SVG Export Plug-In . SVG Version: 6.00 Build 0)  -->
<svg version="1.1" id="Layer_1" xmlns="http://www.w3.org/2000/svg" xmlns:xlink="http://www.w3.org/1999/xlink" x="0px" y="0px"
	 viewBox="0 0 500 500" style="enable-background:new 0 0 500 500;" xml:space="preserve">
<g>
	<path d="M252.3,464.1c-118.4,0-214.8-96.3-214.8-214.8c0-118.4,96.3-214.7,214.8-214.7c118.4,0,214.7,96.3,214.7,214.7
		C467.1,367.8,370.8,464.1,252.3,464.1z M252.3,50.2c-109.8,0-199.2,89.4-199.2,199.2c0,109.8,89.4,199.2,199.2,199.2
		c109.8,0,199.2-89.4,199.2-199.2C451.6,139.6,362.2,50.2,252.3,50.2z"/>
</g>
<g>
	<path d="M253.5,436.3c-24,0-43.5-19.5-43.5-43.5s19.5-43.5,43.5-43.5c24,0,43.5,19.5,43.5,43.5S277.5,436.3,253.5,436.3z"/>
</g>
<g>
	<path d="M356.5,329.3c-24,0-43.5-19.5-43.5-43.5s19.5-43.5,43.5-43.5c24,0,43.5,19.5,43.5,43.5S380.5,329.3,356.5,329.3z"/>
</g>
<g>
	<path d="M147.5,330.3c-24,0-43.5-19.5-43.5-43.5s19.5-43.5,43.5-43.5c24,0,43.5,19.5,43.5,43.5S171.5,330.3,147.5,330.3z"/>
</g>
</svg>
