<svg id="watch-svg1" class="watch-svg watch-svg1" data-watch="1" version="1.1"  xmlns="http://www.w3.org/2000/svg" xmlns:xlink="http://www.w3.org/1999/xlink" xmlns:a="http://ns.adobe.com/AdobeSVGViewerExtensions/3.0/" x="0px" y="0px" width="2498.688px" height="4324.459px" viewBox="0 0 2498.688 4324.459" enable-background="new 0 0 2498.688 4324.459" xml:space="preserve">

    <g id="svg-bezel">
        <path opacity="0" fill="#5D5D5D" d="M1249.344,1242.579c-507.909,0-919.65,411.742-919.65,919.65s411.742,919.65,919.65,919.65
		s919.65-411.742,919.65-919.65S1757.252,1242.579,1249.344,1242.579z M1249.344,2882.889
		c-398.009,0-720.659-322.65-720.659-720.659s322.65-720.659,720.659-720.659s720.659,322.65,720.659,720.659
		S1647.353,2882.889,1249.344,2882.889z" />
    </g>
    <g id="svg-winder">
        <circle opacity="0" fill="#5D5D5D" cx="2333.766" cy="2162.229" r="164.771" />
    </g>
    <g id="svg-case">
        <path opacity="0" fill="#5D5D5D" d="M2202.546,2330.3c0,0-0.093,0.556-0.298,1.625c9.607-55.124,14.633-111.822,14.633-169.695
		c0-56.326-4.76-111.539-13.871-165.271l65.91-9.154c0,0,153.016,18.717,129.013-43.147S2079.9,874.693,2079.9,874.693
		L1710,1012.707v290.216c-140.665-77.86-302.464-122.199-474.625-122.199c-163.556,0-317.758,40.02-453.375,110.778v-236.791
		L630.756,874.693l-516.052,522.052c0,0,34.219,679.485,168.839,525.085c-19.369,76.928-29.674,157.459-29.674,240.399
		c0,157.947,37.321,307.173,103.606,439.361c-54.573,51.471-182.126,173.774-179.766,190.293
		c3,21.002,51.005,198.021,54.005,237.024s42.004,417.041,48.004,432.043s135.014,42.004,135.014,42.004L790,3279l-18.678-251.697
		c138.177,74.278,296.19,116.433,464.054,116.433c158.176,0,307.605-37.431,439.934-103.896c-1.399,1.163-2.828,2.352-4.286,3.563
		c1.417-1.178,2.848-2.366,4.287-3.563c11.698-5.877,23.264-11.979,34.689-18.304v292.4l165.88,60.006h110.271
		c0,0,45.745-42.004,48.745-60.006s186.018-315.032,213.021-366.037s195.02-354.035,195.02-354.035l15.002-237.023L2202.546,2330.3z
		 M315.725,2162.229c0-507.909,411.741-919.65,919.65-919.65s919.65,411.741,919.65,919.65s-411.741,919.65-919.65,919.65
		S315.725,2670.139,315.725,2162.229z" />
    </g>
    <g id="svg-strap">
        <g opacity="0">
            <path fill="#5D5D5D" d="M782,1315v-280l96-848h736l96,872v272C1710,1331,1370,1043,782,1315z" />
            <path fill="#5D5D5D" d="M774,3011c0,0,452,288,936,0v252v332l-100,488l-664,56l-224-384l68-476L774,3011z" />
        </g>
    </g>
    <g id="svg-face">
        <path opacity="0" fill="#5D5D5D" d="M1246,1492.229c-370.031,0-670,299.969-670,670c0,370.031,299.969,670,670,670
		c370.031,0,670.001-299.969,670.001-670C1916.001,1792.199,1616.031,1492.229,1246,1492.229z M1246,2731.229
		c-314.25,0-569-254.75-569-569s254.75-569,569-569s569.001,254.75,569.001,569S1560.25,2731.229,1246,2731.229z" />
    </g>
    <g id="svg-sec-mark">
        <path opacity="0" fill="#5D5D5D" d="M1246,1544.231c-341.312,0-617.999,276.687-617.999,617.999
		c0,341.313,276.687,617.999,617.999,617.999c341.313,0,618-276.687,618-617.999C1864,1820.918,1587.313,1544.231,1246,1544.231z
		 M1246,2767.229c-334.132,0-604.999-270.868-604.999-604.999c0-334.132,270.866-604.999,604.999-604.999
		c334.132,0,605,270.867,605,604.999C1851,2496.36,1580.132,2767.229,1246,2767.229z" />
    </g>
    <g id="hour-mark">
		<circle fill="#5D5D5D" cx="1246" cy="1557.23" r="40.321" />
		<circle fill="#5D5D5D" cx="937.016" cy="1637.873" r="40.321" />
		<circle fill="#5D5D5D" cx="715.027" cy="1861.362" r="40.321" />
		<circle fill="#5D5D5D" cx="1547.485" cy="1637.873" r="40.321" />
		<circle fill="#5D5D5D" cx="1767.974" cy="1861.362" r="40.321" />
		<circle fill="#5D5D5D" cx="1854.969" cy="2162.229" r="40.321" />
		<circle fill="#5D5D5D" cx="1767.974" cy="2466.714" r="40.321" />
		<circle fill="#5D5D5D" cx="1548.984" cy="2690.203" r="40.321" />
		<circle fill="#5D5D5D" cx="1246.001" cy="2770.846" r="40.321" />
		<circle fill="#5D5D5D" cx="938.516" cy="2690.203" r="40.321" />
		<circle fill="#5D5D5D" cx="722" cy="2471.214" r="40.321" />
		<circle fill="#5D5D5D" cx="634.384" cy="2162.229" r="40.321" />
    </g>
    <g id="svg-up-text">
        <circle opacity="0" fill="#5D5D5D" cx="1249.344" cy="1741.777" r="93.01" />
    </g>
    <g id="svg-min">
        <polygon opacity="0" fill="#5D5D5D" points="856,1982 908.174,1850.756 1249.344,2069 1672,1825 1720,1885 1286.321,2219 
		1216,2219 856,2005 	" />
    </g>
    <g id="svg-sechand">
        <path opacity="0" fill="#5D5D5D" d="M734,2395l702-388l52,102l-704,364C784,2473,736,2447,734,2395z" />
    </g>
    <g id="svg-lumi">
        <circle opacity="0" fill="#5D5D5D" cx="1100" cy="2059" r="56" />
        <circle opacity="0" fill="#5D5D5D" cx="1482" cy="2003" r="56" />
    </g>
</svg>