<?xml version="1.0" encoding="utf-8"?>
<!-- Generator: Adobe Illustrator 24.0.1, SVG Export Plug-In . SVG Version: 6.00 Build 0)  -->
<svg version="1.1" id="Layer_1" xmlns="http://www.w3.org/2000/svg" xmlns:xlink="http://www.w3.org/1999/xlink" x="0px" y="0px"
	 viewBox="0 0 500 500" style="enable-background:new 0 0 500 500;" xml:space="preserve">
<style type="text/css">
	.st0{fill:none;stroke:#000000;stroke-width:15;stroke-linecap:round;stroke-linejoin:round;stroke-miterlimit:10;}
</style>
<g>
	<path d="M247.1,432.3c-101.3,0-183.7-83.6-183.7-186.4c0-102.8,82.4-186.4,183.7-186.4c101.3,0,183.7,83.6,183.7,186.4
		C430.7,348.7,348.4,432.3,247.1,432.3z M247.1,72.9c-93.9,0-170.4,77.6-170.4,172.9c0,95.4,76.4,172.9,170.4,172.9
		c93.9,0,170.4-77.6,170.4-172.9C417.5,150.5,341,72.9,247.1,72.9z"/>
</g>
<line class="st0" x1="114.7" y1="368.6" x2="114.7" y2="475.5"/>
<line class="st0" x1="114.7" y1="38.3" x2="114.7" y2="124.1"/>
<line class="st0" x1="379.6" y1="368.6" x2="379.6" y2="475.5"/>
<line class="st0" x1="379.6" y1="38.3" x2="379.6" y2="124.1"/>
<path d="M441.3,272.3h-11.9c-2.8,0-5-2.3-5-5v-45.6c0-2.8,2.3-5,5-5h11.9c2.8,0,5,2.3,5,5v45.6C446.3,270,444,272.3,441.3,272.3z"/>
</svg>
