<?xml version="1.0" encoding="utf-8"?>
<!-- Generator: Adobe Illustrator 24.0.1, SVG Export Plug-In . SVG Version: 6.00 Build 0)  -->
<svg version="1.1" id="Layer_1" xmlns="http://www.w3.org/2000/svg" xmlns:xlink="http://www.w3.org/1999/xlink" x="0px" y="0px"
	 viewBox="0 0 500 500" style="enable-background:new 0 0 500 500;" xml:space="preserve">
<g>
	<path d="M243.74,355.91c-0.03,0-0.05,0-0.08,0c-5.29-0.04-9.55-3.88-9.5-8.57l2.58-290.07c0.04-4.67,4.32-8.44,9.58-8.44
		c0.03,0,0.05,0,0.08,0c5.29,0.04,9.55,3.88,9.5,8.57l-2.58,290.07C253.28,352.15,249,355.91,243.74,355.91z"/>
</g>
<g>
	<path d="M243.76,362.19c-2.48,0-4.96-0.85-6.84-2.55L137.88,270c-3.71-3.35-3.65-8.74,0.13-12.03c3.78-3.29,9.84-3.24,13.55,0.12
		l92.36,83.59l96.71-83.73c3.79-3.28,9.86-3.21,13.55,0.15c3.69,3.36,3.62,8.75-0.17,12.03l-103.55,89.65
		C248.59,361.39,246.17,362.19,243.76,362.19z"/>
</g>
<g>
	<path d="M455.4,451.27H38.55c-8.8,0-15.97-6.36-15.97-14.18V313.11c0-4.7,4.29-8.51,9.58-8.51s9.58,3.81,9.58,8.51v121.15h410.46
		V313.11c0-4.7,4.29-8.51,9.58-8.51c5.29,0,9.58,3.81,9.58,8.51v123.99C471.37,444.91,464.2,451.27,455.4,451.27z"/>
</g>
</svg>
