<?xml version="1.0" encoding="utf-8"?>
<!-- Generator: Adobe Illustrator 24.0.1, SVG Export Plug-In . SVG Version: 6.00 Build 0)  -->
<svg version="1.1" id="Layer_1" xmlns="http://www.w3.org/2000/svg" xmlns:xlink="http://www.w3.org/1999/xlink" x="0px" y="0px"
	 viewBox="0 0 500 500" style="enable-background:new 0 0 500 500;" xml:space="preserve">
<path d="M437.49,206.96c2.93-4.2,5.54-7.98,8.18-11.74c5.49-7.81,13.93-9.73,21.26-4.86c7.2,4.78,8.7,13.6,3.39,21.45
	c-9.97,14.74-19.99,29.44-30.16,44.05c-7.28,10.46-16.94,11.27-26.04,2.3c-12.55-12.38-25.07-24.8-37.5-37.3
	c-6.65-6.69-7.07-15.31-1.33-21.4c5.79-6.15,14.11-6.72,20.59-1.25c2.89,2.44,5.55,5.17,9.32,7.36c-1.01-3.48-1.83-7.03-3.05-10.44
	C373.89,116.08,291.3,71.42,209.82,91.87c-48.94,12.28-84.67,41.69-107.17,86.97c-0.89,1.79-1.67,3.63-2.65,5.37
	c-4.37,7.75-12.47,10.52-19.95,6.88c-7.73-3.76-10.57-12-6.79-20.31c9.52-20.93,22.06-39.8,38.35-56.13
	c29.44-29.52,64.53-48.9,105.78-54.94c70.42-10.31,130,11.16,177.46,64.59c19.9,22.41,33.05,48.53,40.5,77.53
	c0.29,1.13,0.63,2.24,0.99,3.35C436.42,205.48,436.67,205.73,437.49,206.96z"/>
<path d="M60.93,291.14c-3.62,5.08-6.44,9.33-9.56,13.35c-5.29,6.81-13.59,8.21-20.38,3.65c-6.49-4.35-8.9-12.77-4.59-19.29
	c10.82-16.37,21.84-32.62,33.29-48.57c5.31-7.41,14.86-8.34,21.54-2.03c14.14,13.37,27.94,27.11,41.45,41.11
	c6.06,6.28,5.23,14.68-0.82,20.55c-5.74,5.57-13.75,5.62-20.27,0.02c-2.74-2.35-5.32-4.87-7.98-7.32c-0.46,0.22-0.91,0.44-1.37,0.67
	c2.91,7.6,5.38,15.41,8.79,22.78c34.53,74.68,115.39,112.12,194.12,88.84c45.11-13.34,78.53-41.73,99.65-84.09
	c1.11-2.23,2.09-4.54,3.32-6.71c4.33-7.6,12.52-10.21,20.07-6.48c7.4,3.66,10.26,12.03,6.61,19.99
	c-20.3,44.33-52.36,77.39-96.99,96.88c-64.9,28.34-127.98,22.51-186.86-16.31c-39.28-25.9-64.96-62.84-77.54-108.48
	C62.72,297.21,61.97,294.73,60.93,291.14z"/>
</svg>
